<svg xmlns="http://www.w3.org/2000/svg" xmlns:xlink="http://www.w3.org/1999/xlink" contentStyleType="text/css" data-diagram-type="DESCRIPTION" height="554px" preserveAspectRatio="none" style="width:1306px;height:554px;background:#FFFFFF;" version="1.1" viewBox="0 0 1306 554" width="1306px" zoomAndPan="magnify"><title>DFD: &#1056;&#1077;&#1075;&#1080;&#1089;&#1090;&#1088;&#1072;&#1094;&#1080;&#1103; &#1087;&#1072;&#1094;&#1080;&#1077;&#1085;&#1090;&#1072; (&#1089;&#1072;&#1084;&#1086;&#1089;&#1090;&#1086;&#1103;&#1090;&#1077;&#1083;&#1100;&#1085;&#1086; &#1095;&#1077;&#1088;&#1077;&#1079; &#1074;&#1077;&#1073;-&#1087;&#1088;&#1080;&#1083;&#1086;&#1078;&#1077;&#1085;&#1080;&#1077;)</title><defs/><g><g class="title" data-source-line="3"><text fill="#000000" font-family="sans-serif" font-size="14" font-weight="bold" lengthAdjust="spacing" textLength="511.3899" x="390.4769" y="24.9659">DFD: &#1056;&#1077;&#1075;&#1080;&#1089;&#1090;&#1088;&#1072;&#1094;&#1080;&#1103; &#1087;&#1072;&#1094;&#1080;&#1077;&#1085;&#1090;&#1072; (&#1089;&#1072;&#1084;&#1086;&#1089;&#1090;&#1086;&#1103;&#1090;&#1077;&#1083;&#1100;&#1085;&#1086; &#1095;&#1077;&#1088;&#1077;&#1079; &#1074;&#1077;&#1073;-&#1087;&#1088;&#1080;&#1083;&#1086;&#1078;&#1077;&#1085;&#1080;&#1077;)</text></g><!--entity patient--><g class="entity" data-entity="patient" data-source-line="29" data-uid="ent0002" id="entity_patient"><ellipse cx="35.7079" cy="301.5679" fill="#F1F1F1" rx="8" ry="8" style="stroke:#181818;stroke-width:0.5;"/><path d="M35.7079,309.5679 L35.7079,336.5679 M22.7079,317.5679 L48.7079,317.5679 M35.7079,336.5679 L22.7079,351.5679 M35.7079,336.5679 L48.7079,351.5679" fill="none" style="stroke:#181818;stroke-width:0.5;"/><text fill="#000000" font-family="sans-serif" font-size="14" lengthAdjust="spacing" textLength="59.4158" x="6" y="368.0339">&#1055;&#1072;&#1094;&#1080;&#1077;&#1085;&#1090;</text></g><!--entity crm_db--><g class="entity" data-entity="crm_db" data-source-line="31" data-uid="ent0003" id="entity_crm_db"><path d="M1184,301.0679 C1184,291.0679 1236.6718,291.0679 1236.6718,291.0679 C1236.6718,291.0679 1289.3437,291.0679 1289.3437,301.0679 L1289.3437,348.2038 C1289.3437,358.2038 1236.6718,358.2038 1236.6718,358.2038 C1236.6718,358.2038 1184,358.2038 1184,348.2038 L1184,301.0679" fill="#CCE5FF" style="stroke:#181818;stroke-width:0.5;"/><path d="M1184,301.0679 C1184,311.0679 1236.6718,311.0679 1236.6718,311.0679 C1236.6718,311.0679 1289.3437,311.0679 1289.3437,301.0679" fill="none" style="stroke:#181818;stroke-width:0.5;"/><text fill="#000000" font-family="sans-serif" font-size="14" lengthAdjust="spacing" textLength="53.2138" x="1194" y="330.0339">CRM DB</text><text fill="#000000" font-family="sans-serif" font-size="14" lengthAdjust="spacing" textLength="85.3437" x="1194" y="349.1018">(PostgreSQL)</text></g><!--entity consent_db--><g class="entity" data-entity="consent_db" data-source-line="32" data-uid="ent0004" id="entity_consent_db"><path d="M905.5,480.0679 C905.5,470.0679 958.1718,470.0679 958.1718,470.0679 C958.1718,470.0679 1010.8437,470.0679 1010.8437,480.0679 L1010.8437,527.2038 C1010.8437,537.2038 958.1718,537.2038 958.1718,537.2038 C958.1718,537.2038 905.5,537.2038 905.5,527.2038 L905.5,480.0679" fill="#CCE5FF" style="stroke:#181818;stroke-width:0.5;"/><path d="M905.5,480.0679 C905.5,490.0679 958.1718,490.0679 958.1718,490.0679 C958.1718,490.0679 1010.8437,490.0679 1010.8437,480.0679" fill="none" style="stroke:#181818;stroke-width:0.5;"/><text fill="#000000" font-family="sans-serif" font-size="14" lengthAdjust="spacing" textLength="77.2377" x="915.5" y="509.0339">Consent DB</text><text fill="#000000" font-family="sans-serif" font-size="14" lengthAdjust="spacing" textLength="85.3437" x="915.5" y="528.1018">(PostgreSQL)</text></g><!--entity minio--><g class="entity" data-entity="minio" data-source-line="33" data-uid="ent0005" id="entity_minio"><path d="M1187,420.0679 C1187,410.0679 1236.6898,410.0679 1236.6898,410.0679 C1236.6898,410.0679 1286.3797,410.0679 1286.3797,420.0679 L1286.3797,467.2038 C1286.3797,477.2038 1236.6898,477.2038 1236.6898,477.2038 C1236.6898,477.2038 1187,477.2038 1187,467.2038 L1187,420.0679" fill="#CCE5FF" style="stroke:#181818;stroke-width:0.5;"/><path d="M1187,420.0679 C1187,430.0679 1236.6898,430.0679 1236.6898,430.0679 C1236.6898,430.0679 1286.3797,430.0679 1286.3797,420.0679" fill="none" style="stroke:#181818;stroke-width:0.5;"/><text fill="#000000" font-family="sans-serif" font-size="14" lengthAdjust="spacing" textLength="40.6418" x="1197" y="449.0339">MinIO</text><text fill="#000000" font-family="sans-serif" font-size="14" lengthAdjust="spacing" textLength="79.3797" x="1197" y="468.1018">(&#1092;&#1072;&#1081;&#1083;&#1099; &#1052;&#1050;)</text></g><!--entity keycloak_db--><g class="entity" data-entity="keycloak_db" data-source-line="34" data-uid="ent0006" id="entity_keycloak_db"><path d="M907.5,56.0679 C907.5,46.0679 957.8968,46.0679 957.8968,46.0679 C957.8968,46.0679 1008.2937,46.0679 1008.2937,56.0679 L1008.2937,103.2038 C1008.2937,113.2038 957.8968,113.2038 957.8968,113.2038 C957.8968,113.2038 907.5,113.2038 907.5,103.2038 L907.5,56.0679" fill="#E0E0E0" style="stroke:#181818;stroke-width:0.5;"/><path d="M907.5,56.0679 C907.5,66.0679 957.8968,66.0679 957.8968,66.0679 C957.8968,66.0679 1008.2937,66.0679 1008.2937,56.0679" fill="none" style="stroke:#181818;stroke-width:0.5;"/><text fill="#000000" font-family="sans-serif" font-size="14" font-style="italic" lengthAdjust="spacing" textLength="63.9798" x="925.907" y="85.0339">&#171;external&#187;</text><text fill="#000000" font-family="sans-serif" font-size="14" lengthAdjust="spacing" textLength="80.7937" x="917.5" y="104.1018">Keycloak DB</text></g><!--entity google_auth--><g class="entity" data-entity="google_auth" data-source-line="35" data-uid="ent0007" id="entity_google_auth"><path d="M903,158.5679 C903,148.5679 958.1988,148.5679 958.1988,148.5679 C958.1988,148.5679 1013.3977,148.5679 1013.3977,158.5679 L1013.3977,224.7717 C1013.3977,234.7717 958.1988,234.7717 958.1988,234.7717 C958.1988,234.7717 903,234.7717 903,224.7717 L903,158.5679" fill="#E0E0E0" style="stroke:#181818;stroke-width:0.5;"/><path d="M903,158.5679 C903,168.5679 958.1988,168.5679 958.1988,168.5679 C958.1988,168.5679 1013.3977,168.5679 1013.3977,158.5679" fill="none" style="stroke:#181818;stroke-width:0.5;"/><text fill="#000000" font-family="sans-serif" font-size="14" font-style="italic" lengthAdjust="spacing" textLength="63.9798" x="926.2089" y="187.5339">&#171;external&#187;</text><text fill="#000000" font-family="sans-serif" font-size="14" lengthAdjust="spacing" textLength="47.2498" x="913" y="206.6018">Google</text><text fill="#000000" font-family="sans-serif" font-size="14" lengthAdjust="spacing" textLength="90.3977" x="913" y="225.6697">Authenticator</text></g><!--entity webapp--><g class="entity" data-entity="webapp" data-source-line="40" data-uid="ent0008" id="entity_webapp"><rect fill="#CCFFCC" height="58.1358" rx="10" ry="10" style="stroke:#000000;stroke-width:0.5;" width="165.8374" x="221" y="303.5679"/><text fill="#000000" font-family="sans-serif" font-size="14" lengthAdjust="spacing" textLength="59.3318" x="231" y="328.5339">Web App</text><text fill="#000000" font-family="sans-serif" font-size="14" lengthAdjust="spacing" textLength="145.8374" x="231" y="347.6018">(&#1092;&#1086;&#1088;&#1084;&#1072; &#1088;&#1077;&#1075;&#1080;&#1089;&#1090;&#1088;&#1072;&#1094;&#1080;&#1080;)</text></g><!--entity keycloak--><g class="entity" data-entity="keycloak" data-source-line="41" data-uid="ent0009" id="entity_keycloak"><rect fill="#CCFFCC" height="58.1358" rx="10" ry="10" style="stroke:#000000;stroke-width:0.5;" width="156.9895" x="578.5" y="162.5679"/><text fill="#000000" font-family="sans-serif" font-size="14" lengthAdjust="spacing" textLength="57.8338" x="588.5" y="187.5339">Keycloak</text><text fill="#000000" font-family="sans-serif" font-size="14" lengthAdjust="spacing" textLength="136.9895" x="588.5" y="206.6018">(&#1089;&#1086;&#1079;&#1076;&#1072;&#1085;&#1080;&#1077; &#1072;&#1082;&#1082;&#1072;&#1091;&#1085;&#1090;&#1072;)</text></g><!--entity crm_check--><g class="entity" data-entity="crm_check" data-source-line="42" data-uid="ent0010" id="entity_crm_check"><rect fill="#CCFFCC" height="58.1358" rx="10" ry="10" style="stroke:#000000;stroke-width:0.5;" width="168.2174" x="573" y="303.5679"/><text fill="#000000" font-family="sans-serif" font-size="14" lengthAdjust="spacing" textLength="56.0558" x="583" y="328.5339">CRM API</text><text fill="#000000" font-family="sans-serif" font-size="14" lengthAdjust="spacing" textLength="148.2174" x="583" y="347.6018">(&#1087;&#1088;&#1086;&#1074;&#1077;&#1088;&#1082;&#1072; &#1076;&#1091;&#1073;&#1083;&#1080;&#1082;&#1072;&#1090;&#1072;)</text></g><!--entity crm_save--><g class="entity" data-entity="crm_save" data-source-line="43" data-uid="ent0011" id="entity_crm_save"><rect fill="#CCFFCC" height="58.1358" rx="10" ry="10" style="stroke:#000000;stroke-width:0.5;" width="110.0897" x="903" y="376.5679"/><text fill="#000000" font-family="sans-serif" font-size="14" lengthAdjust="spacing" textLength="56.0558" x="913" y="401.5339">CRM API</text><text fill="#000000" font-family="sans-serif" font-size="14" lengthAdjust="spacing" textLength="90.0897" x="913" y="420.6018">(&#1089;&#1086;&#1093;&#1088;&#1072;&#1085;&#1077;&#1085;&#1080;&#1077;)</text></g><!--entity consent_save--><g class="entity" data-entity="consent_save" data-source-line="44" data-uid="ent0012" id="entity_consent_save"><rect fill="#CCFFCC" height="58.1358" rx="10" ry="10" style="stroke:#000000;stroke-width:0.5;" width="163.0655" x="575.5" y="448.5679"/><text fill="#000000" font-family="sans-serif" font-size="14" lengthAdjust="spacing" textLength="143.0655" x="585.5" y="473.5339">Consent Manager API</text><text fill="#000000" font-family="sans-serif" font-size="14" lengthAdjust="spacing" textLength="113.3296" x="585.5" y="492.6018">(&#1089;&#1086;&#1093;&#1088;&#1072;&#1085;&#1077;&#1085;&#1080;&#1077; &#1048;&#1057;)</text></g><!--link patient to webapp--><g class="link" data-entity-1="patient" data-entity-2="webapp" data-source-line="49" data-uid="lnk13" id="link_patient_webapp"><path d="M65.02,332.5679 C101.95,332.5679 161.86,332.5679 214.97,332.5679" fill="none" id="patient-to-webapp" style="stroke:#181818;stroke-width:1;"/><polygon fill="#181818" points="220.97,332.5679,211.97,328.5679,215.97,332.5679,211.97,336.5679,220.97,332.5679" style="stroke:#181818;stroke-width:1;"/><text fill="#000000" font-family="sans-serif" font-size="13" lengthAdjust="spacing" textLength="92.7421" x="96.7735" y="310.4649">&#1060;&#1048;&#1054;, &#1087;&#1072;&#1089;&#1087;&#1086;&#1088;&#1090;,</text><text fill="#000000" font-family="sans-serif" font-size="13" lengthAdjust="spacing" textLength="94.2891" x="96" y="328.1709">&#1090;&#1077;&#1083;&#1077;&#1092;&#1086;&#1085;, email</text></g><!--link webapp to keycloak--><g class="link" data-entity-1="webapp" data-entity-2="keycloak" data-source-line="50" data-uid="lnk14" id="link_webapp_keycloak"><path d="M377.3,303.5279 C437.71,279.2579 517.8423,247.064 578.2223,222.814" fill="none" id="webapp-to-keycloak" style="stroke:#181818;stroke-width:1;"/><polygon fill="#181818" points="583.79,220.5779,573.9476,220.2203,579.1502,222.4414,576.9291,227.6439,583.79,220.5779" style="stroke:#181818;stroke-width:1;"/><text fill="#000000" font-family="sans-serif" font-size="13" lengthAdjust="spacing" textLength="97.7731" x="431.5" y="215.4649">email, &#1090;&#1077;&#1083;&#1077;&#1092;&#1086;&#1085;,</text><text fill="#000000" font-family="sans-serif" font-size="13" lengthAdjust="spacing" textLength="46.501" x="457.136" y="233.1709">&#1087;&#1072;&#1088;&#1086;&#1083;&#1100;</text></g><!--link keycloak to keycloak_db--><g class="link" data-entity-1="keycloak" data-entity-2="keycloak_db" data-source-line="51" data-uid="lnk15" id="link_keycloak_keycloak_db"><path d="M729.9,162.5179 C743.52,157.1379 757.67,151.6179 771,146.5679 C817.05,129.1079 864.2625,112.1662 901.8325,98.8962" fill="none" id="keycloak-to-keycloak_db" style="stroke:#181818;stroke-width:1;"/><polygon fill="#181818" points="907.49,96.8979,897.6716,96.1237,902.7754,98.5631,900.336,103.667,907.49,96.8979" style="stroke:#181818;stroke-width:1;"/><text fill="#000000" font-family="sans-serif" font-size="13" lengthAdjust="spacing" textLength="61.269" x="791.5" y="87.4649">&#1057;&#1086;&#1079;&#1076;&#1072;&#1085;&#1080;&#1077;</text><text fill="#000000" font-family="sans-serif" font-size="13" lengthAdjust="spacing" textLength="56.732" x="793.7685" y="105.1709">&#1072;&#1082;&#1082;&#1072;&#1091;&#1085;&#1090;&#1072;</text></g><!--link keycloak to google_auth--><g class="link" data-entity-1="keycloak" data-entity-2="google_auth" data-source-line="52" data-uid="lnk16" id="link_keycloak_google_auth"><path d="M735.78,191.5679 C788.21,191.5679 850.06,191.5679 896.72,191.5679" fill="none" id="keycloak-to-google_auth" style="stroke:#181818;stroke-width:1;"/><polygon fill="#181818" points="902.72,191.5679,893.72,187.5679,897.72,191.5679,893.72,195.5679,902.72,191.5679" style="stroke:#181818;stroke-width:1;"/><text fill="#000000" font-family="sans-serif" font-size="13" lengthAdjust="spacing" textLength="72.1891" x="786" y="169.4649">TOTP/HOTP</text><text fill="#000000" font-family="sans-serif" font-size="13" lengthAdjust="spacing" textLength="60.996" x="791.5965" y="187.1709">credential</text></g><!--link webapp to crm_check--><g class="link" data-entity-1="webapp" data-entity-2="crm_check" data-source-line="53" data-uid="lnk17" id="link_webapp_crm_check"><path d="M387.29,332.5679 C443.12,332.5679 510.67,332.5679 566.7,332.5679" fill="none" id="webapp-to-crm_check" style="stroke:#181818;stroke-width:1;"/><polygon fill="#181818" points="572.7,332.5679,563.7,328.5679,567.7,332.5679,563.7,336.5679,572.7,332.5679" style="stroke:#181818;stroke-width:1;"/><text fill="#000000" font-family="sans-serif" font-size="13" lengthAdjust="spacing" textLength="78.9231" x="441" y="310.4649">&#1055;&#1072;&#1089;&#1087;&#1086;&#1088;&#1090;&#1085;&#1099;&#1077;</text><text fill="#000000" font-family="sans-serif" font-size="13" lengthAdjust="spacing" textLength="48.854" x="456.0345" y="328.1709">&#1076;&#1072;&#1085;&#1085;&#1099;&#1077;</text></g><!--reverse link crm_check to crm_db--><g class="link" data-entity-1="crm_check" data-entity-2="crm_db" data-source-line="54" data-uid="lnk18" id="link_crm_check_crm_db"><path d="M747.0494,331.3347 C868.1494,329.6547 1083.66,326.6679 1183.85,325.2879" fill="none" id="crm_check-backto-crm_db" style="stroke:#181818;stroke-width:1;"/><polygon fill="#181818" points="741.05,331.4179,750.1046,335.2927,746.0495,331.3486,749.9936,327.2935,741.05,331.4179" style="stroke:#181818;stroke-width:1;"/><text fill="#000000" font-family="sans-serif" font-size="13" lengthAdjust="spacing" textLength="38.844" x="938.825" y="306.4649">&#1055;&#1086;&#1080;&#1089;&#1082;</text><text fill="#000000" font-family="sans-serif" font-size="13" lengthAdjust="spacing" textLength="65.494" x="925.5" y="324.1709">&#1076;&#1091;&#1073;&#1083;&#1080;&#1082;&#1072;&#1090;&#1072;</text></g><!--link crm_check to crm_save--><g class="link" data-entity-1="crm_check" data-entity-2="crm_save" data-source-line="55" data-uid="lnk19" id="link_crm_check_crm_save"><path d="M741.29,352.8979 C792.95,365.5179 852.0112,379.9347 897.0612,390.9347" fill="none" id="crm_check-to-crm_save" style="stroke:#181818;stroke-width:1;"/><polygon fill="#181818" points="902.89,392.3579,895.0957,386.3372,898.0327,391.1719,893.198,394.1089,902.89,392.3579" style="stroke:#181818;stroke-width:1;"/><text fill="#000000" font-family="sans-serif" font-size="13" lengthAdjust="spacing" textLength="100.6201" x="772" y="356.4649">&#1053;&#1086;&#1074;&#1099;&#1081; &#1087;&#1072;&#1094;&#1080;&#1077;&#1085;&#1090;</text></g><!--link crm_save to crm_db--><g class="link" data-entity-1="crm_save" data-entity-2="crm_db" data-source-line="56" data-uid="lnk20" id="link_crm_save_crm_db"><path d="M1013.18,400.3079 C1053.01,395.3079 1107.97,386.0279 1154,369.5679 C1163.89,366.0279 1168.6794,364.142 1178.2794,359.182" fill="none" id="crm_save-to-crm_db" style="stroke:#181818;stroke-width:1;"/><polygon fill="#181818" points="1183.61,356.4279,1173.7781,357.0054,1179.1679,358.723,1177.4502,364.1128,1183.61,356.4279" style="stroke:#181818;stroke-width:1;"/><text fill="#000000" font-family="sans-serif" font-size="13" lengthAdjust="spacing" textLength="109.0441" x="1044" y="347.4649">&#1047;&#1072;&#1096;&#1080;&#1092;&#1088;&#1086;&#1074;&#1072;&#1085;&#1085;&#1099;&#1077;</text><text fill="#000000" font-family="sans-serif" font-size="13" lengthAdjust="spacing" textLength="26.767" x="1085.1385" y="365.1709">&#1055;&#1044;&#1085;</text></g><!--link crm_save to minio--><g class="link" data-entity-1="crm_save" data-entity-2="minio" data-source-line="57" data-uid="lnk21" id="link_crm_save_minio"><path d="M1009.16,434.5879 C1019.99,439.5479 1031.62,443.9379 1043,446.5679 C1091.04,457.6679 1141.655,455.6254 1180.995,451.3554" fill="none" id="crm_save-to-minio" style="stroke:#181818;stroke-width:1;"/><polygon fill="#181818" points="1186.96,450.7079,1177.5809,447.7024,1181.9892,451.2475,1178.4442,455.6557,1186.96,450.7079" style="stroke:#181818;stroke-width:1;"/><text fill="#000000" font-family="sans-serif" font-size="13" lengthAdjust="spacing" textLength="61.269" x="1067.993" y="424.4649">&#1057;&#1086;&#1079;&#1076;&#1072;&#1085;&#1080;&#1077;</text><text fill="#000000" font-family="sans-serif" font-size="13" lengthAdjust="spacing" textLength="86.2551" x="1055.5" y="442.1709">/patient_uuid/</text></g><!--link webapp to consent_save--><g class="link" data-entity-1="webapp" data-entity-2="consent_save" data-source-line="58" data-uid="lnk22" id="link_webapp_consent_save"><path d="M375.61,361.7379 C436.67,386.9579 518.9346,420.9469 579.9546,446.1569" fill="none" id="webapp-to-consent_save" style="stroke:#181818;stroke-width:1;"/><polygon fill="#181818" points="585.5,448.4479,578.7093,441.3145,580.8789,446.5387,575.6546,448.7083,585.5,448.4479" style="stroke:#181818;stroke-width:1;"/><text fill="#000000" font-family="sans-serif" font-size="13" lengthAdjust="spacing" textLength="124.0071" x="418" y="357.4649">&#1048;&#1085;&#1092;&#1086;&#1088;&#1084;&#1080;&#1088;&#1086;&#1074;&#1072;&#1085;&#1085;&#1086;&#1077;</text><text fill="#000000" font-family="sans-serif" font-size="13" lengthAdjust="spacing" textLength="56.472" x="451.7675" y="375.1709">&#1089;&#1086;&#1075;&#1083;&#1072;&#1089;&#1080;&#1077;</text></g><!--link consent_save to consent_db--><g class="link" data-entity-1="consent_save" data-entity-2="consent_db" data-source-line="59" data-uid="lnk23" id="link_consent_save_consent_db"><path d="M738.52,484.5679 C791.45,489.1679 853.1725,494.5384 899.0825,498.5284" fill="none" id="consent_save-to-consent_db" style="stroke:#181818;stroke-width:1;"/><polygon fill="#181818" points="905.06,499.0479,896.4401,494.2837,900.0788,498.615,895.7475,502.2537,905.06,499.0479" style="stroke:#181818;stroke-width:1;"/><text fill="#000000" font-family="sans-serif" font-size="13" lengthAdjust="spacing" textLength="99.4111" x="772.5" y="482.4649">&#1057;&#1086;&#1093;&#1088;&#1072;&#1085;&#1077;&#1085;&#1080;&#1077; &#1048;&#1057;</text></g><!--SRC=[hLLRInj157xVNp5D7rH8K0fzAIAOQ5ffHMk5lWJ2P7UCIpQpONVJ2wMWLjk21VkWLAGcJQyFlcXjQjGc_eMp_wXdTdOtkp62hMR3xEpC-RvpvjncWC0cj60V3jqb7F_Wiq_W33hk2dJWH7pymlKsjDrrT-qEWK_GX4DekSlkYa2uht6-8H3U53VRYDmdxXjeuduJZWZynDT12ixmkmMdIFjRY0bXCZW_aqfF3Ya6Mt28On9BBouwHDCjfZgwoHL7Tmn69h8JbzSyw2vx1-a8GHmtS6p2gViELNOkQTUGejpGs8BE6QbOfificmYBA2yQJ57iaiuhrABbxY9veH3ypPbLhcLCYpEBt1hnbj9KBHKjkMwO5hcPoMIpcOpSCosDMN8zRQ2Wyh8l- -WeU-OmYrCZxvipDlOF6YT7n7CPZHfrQ87QmN7ws3vvEvj5p7b8ryRGjeiCGPK39FN_FqJ35_W1xw41ds4Njc47jeduR-BQBZvxi7L55LHrqE84rAFPbI3K9XNgw8mxYX8wAv6PcoOJwHmVd3LjfsYnHmyV37cogbNEQuMefCbj15yWBJVZY6cTJysWiBkAMNsCURnEu2FiI4HPvxeP4RxFdgk6IKl8do2nYA1moT-CyzyrJSom71-lEekeN5Sf7lmykEY9vIbANKFqwbZCDVWEMnZ11knTaJ0eqSHZLY3ZbOhqLWVBMZGphzfx-WQqfF-UiWAjLBe4WVy4mp8sX2E_-ObMXPCJqH3TLxBHI8R0gLqEaGpZirD8uNMMZcWp-9Qj5C47s6fQ7b588j94NMHgNnPXYBlcTUTss9z2c4sVi0ZAJwzfocaHEyB535Wkq8YddKTr7R6jOLNMP4rs2_BRLOCiomuvnlom4RmJlk8nQabv2InxrzQIkvBCSTdpqV6O1z1E4bQckg7uE44Hn0r9lBqawO7ak4Sg0eXtXnBAHy5OISA8HZnJ4DcJAd5qf9GGFJypFpjy3uSSLoscYHAaCKl3v12gwj5pYZlPKnVUqD1KkkAZgPJVW2Io8se0JeHyRnf6K85AaGq2joio69cFUsvQ9HGA45BF1nHwYvfM_TmFBKEzTSo7TXpeTR2-JXps8vwlLdLjEEQHIC8Aw3Og2Egz5LMBCoJoAlaGZojSrn8kYkAZX64u-rQByXS0]--></g></svg>