<svg xmlns="http://www.w3.org/2000/svg" xmlns:xlink="http://www.w3.org/1999/xlink" contentStyleType="text/css" data-diagram-type="DESCRIPTION" height="586px" preserveAspectRatio="none" style="width:1487px;height:586px;background:#FFFFFF;" version="1.1" viewBox="0 0 1487 586" width="1487px" zoomAndPan="magnify"><title>DFD: &#1055;&#1088;&#1080;&#1105;&#1084; &#1091; &#1074;&#1088;&#1072;&#1095;&#1072; (TO-BE)</title><defs/><g><g class="title" data-source-line="3"><text fill="#000000" font-family="sans-serif" font-size="14" font-weight="bold" lengthAdjust="spacing" textLength="198.6452" x="637.6722" y="24.9659">DFD: &#1055;&#1088;&#1080;&#1105;&#1084; &#1091; &#1074;&#1088;&#1072;&#1095;&#1072; (TO-BE)</text></g><!--entity doctor--><g class="entity" data-entity="doctor" data-source-line="29" data-uid="ent0002" id="entity_doctor"><ellipse cx="199.0729" cy="248.3769" fill="#F1F1F1" rx="8" ry="8" style="stroke:#181818;stroke-width:0.5;"/><path d="M199.0729,256.3769 L199.0729,283.3769 M186.0729,264.3769 L212.0729,264.3769 M199.0729,283.3769 L186.0729,298.3769 M199.0729,283.3769 L212.0729,298.3769" fill="none" style="stroke:#181818;stroke-width:0.5;"/><text fill="#000000" font-family="sans-serif" font-size="14" lengthAdjust="spacing" textLength="34.1459" x="182" y="314.8429">&#1042;&#1088;&#1072;&#1095;</text></g><!--entity patient--><g class="entity" data-entity="patient" data-source-line="30" data-uid="ent0003" id="entity_patient"><ellipse cx="35.7079" cy="248.3769" fill="#F1F1F1" rx="8" ry="8" style="stroke:#181818;stroke-width:0.5;"/><path d="M35.7079,256.3769 L35.7079,283.3769 M22.7079,264.3769 L48.7079,264.3769 M35.7079,283.3769 L22.7079,298.3769 M35.7079,283.3769 L48.7079,298.3769" fill="none" style="stroke:#181818;stroke-width:0.5;"/><text fill="#000000" font-family="sans-serif" font-size="14" lengthAdjust="spacing" textLength="59.4158" x="6" y="314.8429">&#1055;&#1072;&#1094;&#1080;&#1077;&#1085;&#1090;</text></g><!--entity medrecord_db--><g class="entity" data-entity="medrecord_db" data-source-line="32" data-uid="ent0004" id="entity_medrecord_db"><path d="M1349,313.8769 C1349,303.8769 1409.9948,303.8769 1409.9948,303.8769 C1409.9948,303.8769 1470.9896,303.8769 1470.9896,313.8769 L1470.9896,361.0128 C1470.9896,371.0128 1409.9948,371.0128 1409.9948,371.0128 C1409.9948,371.0128 1349,371.0128 1349,361.0128 L1349,313.8769" fill="#CCE5FF" style="stroke:#181818;stroke-width:0.5;"/><path d="M1349,313.8769 C1349,323.8769 1409.9948,323.8769 1409.9948,323.8769 C1409.9948,323.8769 1470.9896,323.8769 1470.9896,313.8769" fill="none" style="stroke:#181818;stroke-width:0.5;"/><text fill="#000000" font-family="sans-serif" font-size="14" lengthAdjust="spacing" textLength="101.9896" x="1359" y="342.8429">Med Record DB</text><text fill="#000000" font-family="sans-serif" font-size="14" lengthAdjust="spacing" textLength="85.3437" x="1359" y="361.9108">(PostgreSQL)</text></g><!--entity consent_db--><g class="entity" data-entity="consent_db" data-source-line="33" data-uid="ent0005" id="entity_consent_db"><path d="M1357.5,83.8769 C1357.5,73.8769 1410.1718,73.8769 1410.1718,73.8769 C1410.1718,73.8769 1462.8437,73.8769 1462.8437,83.8769 L1462.8437,131.0128 C1462.8437,141.0128 1410.1718,141.0128 1410.1718,141.0128 C1410.1718,141.0128 1357.5,141.0128 1357.5,131.0128 L1357.5,83.8769" fill="#CCE5FF" style="stroke:#181818;stroke-width:0.5;"/><path d="M1357.5,83.8769 C1357.5,93.8769 1410.1718,93.8769 1410.1718,93.8769 C1410.1718,93.8769 1462.8437,93.8769 1462.8437,83.8769" fill="none" style="stroke:#181818;stroke-width:0.5;"/><text fill="#000000" font-family="sans-serif" font-size="14" lengthAdjust="spacing" textLength="77.2377" x="1367.5" y="112.8429">Consent DB</text><text fill="#000000" font-family="sans-serif" font-size="14" lengthAdjust="spacing" textLength="85.3437" x="1367.5" y="131.9108">(PostgreSQL)</text></g><!--entity minio--><g class="entity" data-entity="minio" data-source-line="34" data-uid="ent0006" id="entity_minio"><path d="M733.5,329.8769 C733.5,319.8769 770.6949,319.8769 770.6949,319.8769 C770.6949,319.8769 807.8898,319.8769 807.8898,329.8769 L807.8898,377.0128 C807.8898,387.0128 770.6949,387.0128 770.6949,387.0128 C770.6949,387.0128 733.5,387.0128 733.5,377.0128 L733.5,329.8769" fill="#CCE5FF" style="stroke:#181818;stroke-width:0.5;"/><path d="M733.5,329.8769 C733.5,339.8769 770.6949,339.8769 770.6949,339.8769 C770.6949,339.8769 807.8898,339.8769 807.8898,329.8769" fill="none" style="stroke:#181818;stroke-width:0.5;"/><text fill="#000000" font-family="sans-serif" font-size="14" lengthAdjust="spacing" textLength="40.6418" x="743.5" y="358.8429">MinIO</text><text fill="#000000" font-family="sans-serif" font-size="14" lengthAdjust="spacing" textLength="54.3898" x="743.5" y="377.9108">(&#1092;&#1072;&#1081;&#1083;&#1099;)</text></g><!--entity elastic--><g class="entity" data-entity="elastic" data-source-line="35" data-uid="ent0007" id="entity_elastic"><path d="M1357,185.8769 C1357,175.8769 1409.9658,175.8769 1409.9658,175.8769 C1409.9658,175.8769 1462.9317,175.8769 1462.9317,185.8769 L1462.9317,233.0128 C1462.9317,243.0128 1409.9658,243.0128 1409.9658,243.0128 C1409.9658,243.0128 1357,243.0128 1357,233.0128 L1357,185.8769" fill="#CCE5FF" style="stroke:#181818;stroke-width:0.5;"/><path d="M1357,185.8769 C1357,195.8769 1409.9658,195.8769 1409.9658,195.8769 C1409.9658,195.8769 1462.9317,195.8769 1462.9317,185.8769" fill="none" style="stroke:#181818;stroke-width:0.5;"/><text fill="#000000" font-family="sans-serif" font-size="14" lengthAdjust="spacing" textLength="85.9317" x="1367" y="214.8429">ElasticSearch</text><text fill="#000000" font-family="sans-serif" font-size="14" lengthAdjust="spacing" textLength="40.0258" x="1367" y="233.9108">(&#1083;&#1086;&#1075;&#1080;)</text></g><!--entity webapp_read--><g class="entity" data-entity="webapp_read" data-source-line="40" data-uid="ent0008" id="entity_webapp_read"><rect fill="#CCFFCC" height="58.1358" rx="10" ry="10" style="stroke:#000000;stroke-width:0.5;" width="100.6397" x="437.5" y="63.3769"/><text fill="#000000" font-family="sans-serif" font-size="14" lengthAdjust="spacing" textLength="59.3318" x="447.5" y="88.3429">Web App</text><text fill="#000000" font-family="sans-serif" font-size="14" lengthAdjust="spacing" textLength="80.6397" x="447.5" y="107.4108">(&#1079;&#1072;&#1087;&#1088;&#1086;&#1089; &#1052;&#1050;)</text></g><!--entity auth_proxy--><g class="entity" data-entity="auth_proxy" data-source-line="41" data-uid="ent0009" id="entity_auth_proxy"><rect fill="#CCFFCC" height="58.1358" rx="10" ry="10" style="stroke:#000000;stroke-width:0.5;" width="117.2856" x="712" y="118.3769"/><text fill="#000000" font-family="sans-serif" font-size="14" lengthAdjust="spacing" textLength="72.2117" x="722" y="143.3429">Auth Proxy</text><text fill="#000000" font-family="sans-serif" font-size="14" lengthAdjust="spacing" textLength="97.2856" x="722" y="162.4108">(&#1087;&#1088;&#1086;&#1074;&#1077;&#1088;&#1082;&#1072; &#1048;&#1057;)</text></g><!--entity consent_check--><g class="entity" data-entity="consent_check" data-source-line="42" data-uid="ent0010" id="entity_consent_check"><rect fill="#CCFFCC" height="58.1358" rx="10" ry="10" style="stroke:#000000;stroke-width:0.5;" width="163.0655" x="1001" y="82.3769"/><text fill="#000000" font-family="sans-serif" font-size="14" lengthAdjust="spacing" textLength="143.0655" x="1011" y="107.3429">Consent Manager API</text><text fill="#000000" font-family="sans-serif" font-size="14" lengthAdjust="spacing" textLength="97.2856" x="1011" y="126.4108">(&#1087;&#1088;&#1086;&#1074;&#1077;&#1088;&#1082;&#1072; &#1048;&#1057;)</text></g><!--entity medrecord_read--><g class="entity" data-entity="medrecord_read" data-source-line="43" data-uid="ent0011" id="entity_medrecord_read"><rect fill="#CCFFCC" height="58.1358" rx="10" ry="10" style="stroke:#000000;stroke-width:0.5;" width="124.8316" x="1020" y="334.3769"/><text fill="#000000" font-family="sans-serif" font-size="14" lengthAdjust="spacing" textLength="104.8316" x="1030" y="359.3429">Med Record API</text><text fill="#000000" font-family="sans-serif" font-size="14" lengthAdjust="spacing" textLength="82.3477" x="1030" y="378.4108">(&#1095;&#1090;&#1077;&#1085;&#1080;&#1077; &#1052;&#1050;)</text></g><!--entity webapp_write--><g class="entity" data-entity="webapp_write" data-source-line="44" data-uid="ent0012" id="entity_webapp_write"><rect fill="#CCFFCC" height="58.1358" rx="10" ry="10" style="stroke:#000000;stroke-width:0.5;" width="152.2995" x="412" y="156.3769"/><text fill="#000000" font-family="sans-serif" font-size="14" lengthAdjust="spacing" textLength="59.3318" x="422" y="181.3429">Web App</text><text fill="#000000" font-family="sans-serif" font-size="14" lengthAdjust="spacing" textLength="132.2995" x="422" y="200.4108">(&#1079;&#1072;&#1087;&#1080;&#1089;&#1100; &#1087;&#1088;&#1086;&#1090;&#1086;&#1082;&#1086;&#1083;&#1072;)</text></g><!--entity medrecord_write--><g class="entity" data-entity="medrecord_write" data-source-line="45" data-uid="ent0013" id="entity_medrecord_write"><rect fill="#CCFFCC" height="58.1358" rx="10" ry="10" style="stroke:#000000;stroke-width:0.5;" width="124.8316" x="1020" y="180.3769"/><text fill="#000000" font-family="sans-serif" font-size="14" lengthAdjust="spacing" textLength="104.8316" x="1030" y="205.3429">Med Record API</text><text fill="#000000" font-family="sans-serif" font-size="14" lengthAdjust="spacing" textLength="55.8878" x="1030" y="224.4108">(&#1079;&#1072;&#1087;&#1080;&#1089;&#1100;)</text></g><!--entity auth_proxy_minio--><g class="entity" data-entity="auth_proxy_minio" data-source-line="46" data-uid="ent0014" id="entity_auth_proxy_minio"><rect fill="#CCFFCC" height="58.1358" rx="10" ry="10" style="stroke:#000000;stroke-width:0.5;" width="129.5916" x="423" y="283.3769"/><text fill="#000000" font-family="sans-serif" font-size="14" lengthAdjust="spacing" textLength="72.2117" x="433" y="308.3429">Auth Proxy</text><text fill="#000000" font-family="sans-serif" font-size="14" lengthAdjust="spacing" textLength="109.5916" x="433" y="327.4108">(&#1076;&#1086;&#1089;&#1090;&#1091;&#1087; &#1082; MinIO)</text></g><!--link doctor to webapp_read--><g class="link" data-entity-1="doctor" data-entity-2="webapp_read" data-source-line="51" data-uid="lnk15" id="link_doctor_webapp_read"><path d="M205.55,239.8169 C211.3,213.2469 222.88,179.3769 246,158.3769 C298.98,110.2469 377.7929,97.1401 431.3929,93.6201" fill="none" id="doctor-to-webapp_read" style="stroke:#181818;stroke-width:1;"/><polygon fill="#181818" points="437.38,93.2269,428.1372,89.8253,432.3907,93.5546,428.6615,97.8081,437.38,93.2269" style="stroke:#181818;stroke-width:1;"/><text fill="#000000" font-family="sans-serif" font-size="13" lengthAdjust="spacing" textLength="68.3541" x="280" y="79.2739">&#1047;&#1072;&#1087;&#1088;&#1086;&#1089; &#1052;&#1050;</text><text fill="#000000" font-family="sans-serif" font-size="13" lengthAdjust="spacing" textLength="61.074" x="283.64" y="96.9799">&#1087;&#1072;&#1094;&#1080;&#1077;&#1085;&#1090;&#1072;</text></g><!--link webapp_read to auth_proxy--><g class="link" data-entity-1="webapp_read" data-entity-2="auth_proxy" data-source-line="52" data-uid="lnk16" id="link_webapp_read_auth_proxy"><path d="M538.5,102.0869 C586.94,111.5769 654.812,124.8931 705.892,134.9031" fill="none" id="webapp_read-to-auth_proxy" style="stroke:#181818;stroke-width:1;"/><polygon fill="#181818" points="711.78,136.0569,703.7172,130.4008,706.8733,135.0954,702.1788,138.2515,711.78,136.0569" style="stroke:#181818;stroke-width:1;"/><text fill="#000000" font-family="sans-serif" font-size="13" lengthAdjust="spacing" textLength="82.2121" x="597" y="108.2739">&#1047;&#1072;&#1087;&#1088;&#1086;&#1089; + JWT</text></g><!--link auth_proxy to consent_check--><g class="link" data-entity-1="auth_proxy" data-entity-2="consent_check" data-source-line="53" data-uid="lnk17" id="link_auth_proxy_consent_check"><path d="M829.32,145.2569 C869.25,143.3169 923.51,139.7469 971,133.3769 C980.69,132.0769 984.9127,131.4974 994.9227,129.7174" fill="none" id="auth_proxy-to-consent_check" style="stroke:#181818;stroke-width:1;"/><polygon fill="#181818" points="1000.83,128.6669,991.2687,126.3044,995.9072,129.5423,992.6693,134.1808,1000.83,128.6669" style="stroke:#181818;stroke-width:1;"/><text fill="#000000" font-family="sans-serif" font-size="13" lengthAdjust="spacing" textLength="76.7001" x="877" y="111.2739">doctor_uuid,</text><text fill="#000000" font-family="sans-serif" font-size="13" lengthAdjust="spacing" textLength="76.5831" x="877.0585" y="128.9799">patient_uuid</text></g><!--link consent_check to auth_proxy--><g class="link" data-entity-1="consent_check" data-entity-2="auth_proxy" data-source-line="55" data-uid="lnk19" id="link_consent_check_auth_proxy"><path d="M1000.84,90.6269 C957.98,83.0469 904.82,79.1769 859,92.3769 C840.72,97.6469 827.5241,104.5775 812.5441,114.8775" fill="none" id="consent_check-to-auth_proxy" style="stroke:#181818;stroke-width:1;"/><polygon fill="#181818" points="807.6,118.2769,817.2824,116.4738,811.72,115.444,812.7498,109.8817,807.6,118.2769" style="stroke:#181818;stroke-width:1;"/><text fill="#000000" font-family="sans-serif" font-size="13" lengthAdjust="spacing" textLength="39.78" x="895.424" y="62.2739">&#1048;&#1057; OK</text><text fill="#000000" font-family="sans-serif" font-size="13" lengthAdjust="spacing" textLength="69.6281" x="880.5" y="79.9799">(&#1079;&#1072; N &#1076;&#1085;&#1077;&#1081;)</text></g><!--reverse link consent_check to consent_db--><g class="link" data-entity-1="consent_check" data-entity-2="consent_db" data-source-line="54" data-uid="lnk18" id="link_consent_check_consent_db"><path d="M1170.3795,110.3132 C1230.6295,109.5732 1305.12,108.6569 1357.02,108.0169" fill="none" id="consent_check-backto-consent_db" style="stroke:#181818;stroke-width:1;"/><polygon fill="#181818" points="1164.38,110.3869,1173.4284,114.2761,1169.3796,110.3255,1173.3302,106.2767,1164.38,110.3869" style="stroke:#181818;stroke-width:1;"/><text fill="#000000" font-family="sans-serif" font-size="13" lengthAdjust="spacing" textLength="83.9281" x="1214.656" y="86.2739">&#1055;&#1088;&#1086;&#1074;&#1077;&#1088;&#1082;&#1072; &#1048;&#1057;</text><text fill="#000000" font-family="sans-serif" font-size="13" lengthAdjust="spacing" textLength="110.2401" x="1201.5" y="103.9799">(+ &#1089;&#1088;&#1086;&#1082; &#1076;&#1072;&#1074;&#1085;&#1086;&#1089;&#1090;&#1080;)</text></g><!--link auth_proxy to medrecord_read--><g class="link" data-entity-1="auth_proxy" data-entity-2="medrecord_read" data-source-line="56" data-uid="lnk20" id="link_auth_proxy_medrecord_read"><path d="M805.76,176.5569 C821.65,189.7269 840.97,205.2469 859,218.3769 C917.51,260.9969 982.8403,302.7158 1028.5603,331.0558" fill="none" id="auth_proxy-to-medrecord_read" style="stroke:#181818;stroke-width:1;"/><polygon fill="#181818" points="1033.66,334.2169,1028.1178,326.0754,1029.4102,331.5827,1023.903,332.8751,1033.66,334.2169" style="stroke:#181818;stroke-width:1;"/><text fill="#000000" font-family="sans-serif" font-size="13" lengthAdjust="spacing" textLength="110.1101" x="860" y="214.2739">&#1056;&#1072;&#1079;&#1088;&#1077;&#1096;&#1105;&#1085; &#1076;&#1086;&#1089;&#1090;&#1091;&#1087;</text></g><!--reverse link medrecord_read to medrecord_db--><g class="link" data-entity-1="medrecord_read" data-entity-2="medrecord_db" data-source-line="57" data-uid="lnk21" id="link_medrecord_read_medrecord_db"><path d="M1151.373,370.2582 C1199.103,373.8582 1260.63,375.5469 1319,366.3769 C1328.73,364.8469 1338.84,362.4469 1348.63,359.6569" fill="none" id="medrecord_read-backto-medrecord_db" style="stroke:#181818;stroke-width:1;"/><polygon fill="#181818" points="1145.39,369.8069,1154.0637,374.4725,1150.3758,370.183,1154.6654,366.4951,1145.39,369.8069" style="stroke:#181818;stroke-width:1;"/><text fill="#000000" font-family="sans-serif" font-size="13" lengthAdjust="spacing" textLength="73.4891" x="1219.973" y="344.2739">&#1044;&#1072;&#1085;&#1085;&#1099;&#1077; &#1052;&#1050;</text><text fill="#000000" font-family="sans-serif" font-size="13" lengthAdjust="spacing" textLength="123.4351" x="1195" y="361.9799">(&#1088;&#1072;&#1089;&#1096;&#1080;&#1092;&#1088;&#1086;&#1074;&#1072;&#1085;&#1085;&#1099;&#1077;)</text></g><!--link medrecord_read to doctor--><g class="link" data-entity-1="medrecord_read" data-entity-2="doctor" data-source-line="58" data-uid="lnk22" id="link_medrecord_read_doctor"><path d="M1019.89,390.2469 C870.77,450.7069 485.08,579.2369 246,406.3769 C218.44,386.4569 208.2512,354.2888 203.8012,324.9988" fill="none" id="medrecord_read-to-doctor" style="stroke:#181818;stroke-width:1;"/><polygon fill="#181818" points="202.9,319.0669,200.2972,328.5656,203.651,324.0102,208.2065,327.364,202.9,319.0669" style="stroke:#181818;stroke-width:1;"/><text fill="#000000" font-family="sans-serif" font-size="13" lengthAdjust="spacing" textLength="84.2791" x="596" y="479.2739">&#1052;&#1050; &#1087;&#1072;&#1094;&#1080;&#1077;&#1085;&#1090;&#1072;</text></g><!--link doctor to auth_proxy_minio--><g class="link" data-entity-1="doctor" data-entity-2="auth_proxy_minio" data-source-line="59" data-uid="lnk23" id="link_doctor_auth_proxy_minio"><path d="M207.41,318.9669 C213.73,340.7869 225.24,366.0769 246,379.3769 C296.89,411.9869 323.98,396.3169 382,379.3769 C407.74,371.8669 428.369,359.4922 447.759,345.0422" fill="none" id="doctor-to-auth_proxy_minio" style="stroke:#181818;stroke-width:1;"/><polygon fill="#181818" points="452.57,341.4569,442.9633,343.6275,448.5608,344.4447,447.7437,350.0422,452.57,341.4569" style="stroke:#181818;stroke-width:1;"/><text fill="#000000" font-family="sans-serif" font-size="13" lengthAdjust="spacing" textLength="96.4731" x="266" y="375.2739">&#1047;&#1072;&#1087;&#1088;&#1086;&#1089; &#1092;&#1072;&#1081;&#1083;&#1086;&#1074;</text></g><!--link auth_proxy_minio to doctor--><g class="link" data-entity-1="auth_proxy_minio" data-entity-2="doctor" data-source-line="62" data-uid="lnk26" id="link_auth_proxy_minio_doctor"><path d="M422.87,327.6869 C372.99,336.5169 302.92,342.0669 246,320.3769 C234.6,316.0369 228.4146,311.7268 220.4246,303.5168" fill="none" id="auth_proxy_minio-to-doctor" style="stroke:#181818;stroke-width:1;"/><polygon fill="#181818" points="216.24,299.2169,219.6504,308.4565,219.7272,302.8001,225.3835,302.877,216.24,299.2169" style="stroke:#181818;stroke-width:1;"/><text fill="#000000" font-family="sans-serif" font-size="13" lengthAdjust="spacing" textLength="53.274" x="287.632" y="298.2739">&#1057;&#1085;&#1080;&#1084;&#1082;&#1080;,</text><text fill="#000000" font-family="sans-serif" font-size="13" lengthAdjust="spacing" textLength="70.5381" x="279" y="315.9799">&#1076;&#1086;&#1082;&#1091;&#1084;&#1077;&#1085;&#1090;&#1099;</text></g><!--link doctor to auth_proxy_minio--><g class="link" data-entity-1="doctor" data-entity-2="auth_proxy_minio" data-source-line="68" data-uid="lnk32" id="link_doctor_auth_proxy_minio"><path d="M216.19,277.7369 C248.13,274.8769 321.41,270.0769 382,279.3769 C395.41,281.4369 403.7048,283.1906 417.0048,287.1106" fill="none" id="doctor-to-auth_proxy_minio-1" style="stroke:#181818;stroke-width:1;"/><polygon fill="#181818" points="422.76,288.8069,415.258,282.4257,417.964,287.3934,412.9963,290.0993,422.76,288.8069" style="stroke:#181818;stroke-width:1;"/><text fill="#000000" font-family="sans-serif" font-size="13" lengthAdjust="spacing" textLength="107.0551" x="260.5" y="269.2739">&#1047;&#1072;&#1075;&#1088;&#1091;&#1079;&#1082;&#1072; &#1092;&#1072;&#1081;&#1083;&#1086;&#1074;</text></g><!--link auth_proxy_minio to consent_check--><g class="link" data-entity-1="auth_proxy_minio" data-entity-2="consent_check" data-source-line="60" data-uid="lnk24" id="link_auth_proxy_minio_consent_check"><path d="M553.24,293.3469 C566.67,289.5569 580.77,285.7169 594,282.3769 C760.34,240.3469 824.41,288.5269 971,199.3769 C988.8,188.5569 985.41,177.1869 1001,163.3769 C1010.22,155.2169 1015.8355,150.7518 1026.2755,143.8018" fill="none" id="auth_proxy_minio-to-consent_check" style="stroke:#181818;stroke-width:1;"/><polygon fill="#181818" points="1031.27,140.4769,1021.5616,142.1346,1027.1079,143.2477,1025.9948,148.7939,1031.27,140.4769" style="stroke:#181818;stroke-width:1;"/><text fill="#000000" font-family="sans-serif" font-size="13" lengthAdjust="spacing" textLength="83.9281" x="729" y="250.2739">&#1055;&#1088;&#1086;&#1074;&#1077;&#1088;&#1082;&#1072; &#1048;&#1057;</text></g><!--reverse link auth_proxy_minio to minio--><g class="link" data-entity-1="auth_proxy_minio" data-entity-2="minio" data-source-line="61" data-uid="lnk25" id="link_auth_proxy_minio_minio"><path d="M558.9368,322.5954 C614.7168,330.7554 687.69,341.4169 733.23,348.0769" fill="none" id="auth_proxy_minio-backto-minio" style="stroke:#181818;stroke-width:1;"/><polygon fill="#181818" points="553,321.7269,561.3262,326.9875,557.9473,322.4507,562.4842,319.0718,553,321.7269" style="stroke:#181818;stroke-width:1;"/><text fill="#000000" font-family="sans-serif" font-size="13" lengthAdjust="spacing" textLength="61.8411" x="607.207" y="305.2739">&#1060;&#1072;&#1081;&#1083;&#1099; &#1080;&#1079;</text><text fill="#000000" font-family="sans-serif" font-size="13" lengthAdjust="spacing" textLength="86.2551" x="595" y="322.9799">/patient_uuid/</text></g><!--link auth_proxy_minio to minio--><g class="link" data-entity-1="auth_proxy_minio" data-entity-2="minio" data-source-line="69" data-uid="lnk33" id="link_auth_proxy_minio_minio"><path d="M520.78,341.7269 C540.32,357.7169 566.76,375.9369 594,384.3769 C640.99,398.9369 691.7105,385.6123 727.6405,371.7823" fill="none" id="auth_proxy_minio-to-minio" style="stroke:#181818;stroke-width:1;"/><polygon fill="#181818" points="733.24,369.6269,723.4038,369.1269,728.5737,371.423,726.2776,376.5929,733.24,369.6269" style="stroke:#181818;stroke-width:1;"/><text fill="#000000" font-family="sans-serif" font-size="13" lengthAdjust="spacing" textLength="54.6001" x="610.8275" y="362.2739">&#1060;&#1072;&#1081;&#1083;&#1099; &#1074;</text><text fill="#000000" font-family="sans-serif" font-size="13" lengthAdjust="spacing" textLength="86.2551" x="595" y="379.9799">/patient_uuid/</text></g><!--link patient to doctor--><g class="link" data-entity-1="patient" data-entity-2="doctor" data-source-line="63" data-uid="lnk27" id="link_patient_doctor"><path d="M65,279.3769 C98.87,279.3769 148.22,279.3769 175.6,279.3769" fill="none" id="patient-to-doctor" style="stroke:#181818;stroke-width:1;"/><polygon fill="#181818" points="181.6,279.3769,172.6,275.3769,176.6,279.3769,172.6,283.3769,181.6,279.3769" style="stroke:#181818;stroke-width:1;"/><text fill="#000000" font-family="sans-serif" font-size="13" lengthAdjust="spacing" textLength="55.159" x="96" y="257.2739">&#1046;&#1072;&#1083;&#1086;&#1073;&#1099;,</text><text fill="#000000" font-family="sans-serif" font-size="13" lengthAdjust="spacing" textLength="45.851" x="100.654" y="274.9799">&#1086;&#1089;&#1084;&#1086;&#1090;&#1088;</text></g><!--link doctor to webapp_write--><g class="link" data-entity-1="doctor" data-entity-2="webapp_write" data-source-line="64" data-uid="lnk28" id="link_doctor_webapp_write"><path d="M216.1,265.5369 C224.53,258.9069 235.3,251.3469 246,246.3769 C298.84,221.8169 357.0755,207.3174 405.8955,198.0374" fill="none" id="doctor-to-webapp_write" style="stroke:#181818;stroke-width:1;"/><polygon fill="#181818" points="411.79,196.9169,402.2014,194.668,406.878,197.8506,403.6953,202.5272,411.79,196.9169" style="stroke:#181818;stroke-width:1;"/><text fill="#000000" font-family="sans-serif" font-size="13" lengthAdjust="spacing" textLength="65.1561" x="281.892" y="181.2739">&#1055;&#1088;&#1086;&#1090;&#1086;&#1082;&#1086;&#1083;,</text><text fill="#000000" font-family="sans-serif" font-size="13" lengthAdjust="spacing" textLength="134.9401" x="247" y="198.9799">&#1076;&#1080;&#1072;&#1075;&#1085;&#1086;&#1079;, &#1085;&#1072;&#1079;&#1085;&#1072;&#1095;&#1077;&#1085;&#1080;&#1103;</text></g><!--link webapp_write to auth_proxy--><g class="link" data-entity-1="webapp_write" data-entity-2="auth_proxy" data-source-line="65" data-uid="lnk29" id="link_webapp_write_auth_proxy"><path d="M564.45,180.6569 C600.21,177.8269 643.45,173.5569 682,167.3769 C691.69,165.8269 696.0554,165.0946 705.9554,162.9546" fill="none" id="webapp_write-to-auth_proxy" style="stroke:#181818;stroke-width:1;"/><polygon fill="#181818" points="711.82,161.6869,702.178,159.6788,706.9329,162.7433,703.8683,167.4982,711.82,161.6869" style="stroke:#181818;stroke-width:1;"/><text fill="#000000" font-family="sans-serif" font-size="13" lengthAdjust="spacing" textLength="82.2121" x="597" y="163.2739">&#1047;&#1072;&#1087;&#1088;&#1086;&#1089; + JWT</text></g><!--link auth_proxy to medrecord_write--><g class="link" data-entity-1="auth_proxy" data-entity-2="medrecord_write" data-source-line="66" data-uid="lnk30" id="link_auth_proxy_medrecord_write"><path d="M829.23,163.2769 C839.12,165.7969 849.33,168.2669 859,170.3769 C913.02,182.1869 969.1054,191.8689 1013.9154,199.0389" fill="none" id="auth_proxy-to-medrecord_write" style="stroke:#181818;stroke-width:1;"/><polygon fill="#181818" points="1019.84,199.9869,1011.585,194.6152,1014.9028,199.1969,1010.3211,202.5147,1019.84,199.9869" style="stroke:#181818;stroke-width:1;"/><text fill="#000000" font-family="sans-serif" font-size="13" lengthAdjust="spacing" textLength="43.966" x="893.5" y="166.2739">INSERT</text></g><!--link medrecord_write to medrecord_db--><g class="link" data-entity-1="medrecord_write" data-entity-2="medrecord_db" data-source-line="67" data-uid="lnk31" id="link_medrecord_write_medrecord_db"><path d="M1145.08,234.6869 C1160.99,241.1669 1178.11,248.0769 1194,254.3769 C1246.07,275.0269 1299.8856,295.7744 1343.0456,312.2744" fill="none" id="medrecord_write-to-medrecord_db" style="stroke:#181818;stroke-width:1;"/><polygon fill="#181818" points="1348.65,314.4169,1341.6718,307.4668,1343.9797,312.6315,1338.815,314.9394,1348.65,314.4169" style="stroke:#181818;stroke-width:1;"/><text fill="#000000" font-family="sans-serif" font-size="13" lengthAdjust="spacing" textLength="109.0441" x="1202" y="232.2739">&#1047;&#1072;&#1096;&#1080;&#1092;&#1088;&#1086;&#1074;&#1072;&#1085;&#1085;&#1099;&#1077;</text><text fill="#000000" font-family="sans-serif" font-size="13" lengthAdjust="spacing" textLength="48.854" x="1232.095" y="249.9799">&#1076;&#1072;&#1085;&#1085;&#1099;&#1077;</text></g><!--link medrecord_write to elastic--><g class="link" data-entity-1="medrecord_write" data-entity-2="elastic" data-source-line="70" data-uid="lnk34" id="link_medrecord_write_elastic"><path d="M1145.11,209.3769 C1206.3,209.3769 1293.09,209.3769 1350.77,209.3769" fill="none" id="medrecord_write-to-elastic" style="stroke:#181818;stroke-width:1;"/><polygon fill="#181818" points="1356.77,209.3769,1347.77,205.3769,1351.77,209.3769,1347.77,213.3769,1356.77,209.3769" style="stroke:#181818;stroke-width:1;"/><text fill="#000000" font-family="sans-serif" font-size="13" lengthAdjust="spacing" textLength="53.976" x="1229.5635" y="187.2739">&#1051;&#1086;&#1075;: &#1082;&#1090;&#1086;,</text><text fill="#000000" font-family="sans-serif" font-size="13" lengthAdjust="spacing" textLength="64.103" x="1224.5" y="204.9799">&#1082;&#1086;&#1075;&#1076;&#1072;, &#1095;&#1090;&#1086;</text></g><!--SRC=[hLPTJnDD5BwVNt742oL2D2RU6482fKrG4GGIRqYQONSi6-jkCrqYnfW8-hwQy2Ql6bJY1uYV5zuWIeeLobyuyuyyCxFjVdHL5BlDRdRcFEVpEMVs6E0Axk0cVbQtwRvBroRWFhRK4hQmgL- -qFeUxgbbzSzPm7MIsr4FSHVK7S0jZLBtIEpuz7Z_SB6NLSML4C80f5UP2y7rf712B_1Pw8LL0IEbaGFeO4TSSSNp1THau8Xw7RGIxbUgWh7wLS-lSSclnOjmam7z9eDvtoq4qXSIJfyoIyFSkLgHThqQI3XQA9HAXOBT2wGhf5qVhf8WkvMhVM10B8H2-hnQZjmP7FmDYyLJ-Zg8HPU7V9RNs-7a-5uyKoeHfXiI-zZnxKUEaCbZqF_dFqBZ6_o03t03N-DBNCLdk0hwlq9hB-dwY8yFQO8x8NdSWuyiCtg0ry4Dz69dQvqs_YNYRXCnbun0ZOUUy4F6Eddi6HCkJ0g7qWuZmpF-yOcW7bQacBfqeTT0hWbNcksoEvk05GA_JfhoCOxTJ2F6F7zqd8JLNUgLh_XDBKS6FDyB4dB5Ag-7dZCbk7JcI1w_KPDznXqhBUpkNoZGEhx2DNoFZwb86_Zna0hRNTXpMSp2KAsc7MzGeFjKdfPQ17o1psm4ryKihzNAKd0tHWtDXtCm8OE56nfeGBY5s_GqusKLDooOavnkiOKRCRPTYZ7kymfrsT34wC-LjClZp0dghuwU11Ei2dMF1XoHHrCe4K3CY7GCsSXfV2sg_o1AWHsLBQhcPYeFrwKNYfyuaTILjP_1ffFuHUTTBQaxk0_O14E_R1BBbdn_WqnhrEbhji_Z9dztICsseKd5O98sGCV3qmotPdnAKgBTSPCb4Lf377PMmGauTtcQ9VQrU8ebXB2-bEVdFRTlneycYNbbQT61_lx4183eBCjIaKfq0gX0UgTf3z0jefgf6JLxHcUt_wG2niz7186BMiCUXVwrDnj7cguQ-efiDSZmjhfF1-mU9Ad2Ck8wcEG8rFYLzc4VjOLk5Js45zLzukdTADYEJ6zMf_OggknPem2wQfSeV9QjsUArvwasohg4yogPMuzkg0czRV5jUsW3UTcOyKyc2N0otsuSuuOP8hjaR8Uue_EDJShsherNBRD8MmRsX8pgk3wfPGsZQ0b2eqJTpkaCCmmwqSNpnXeqds-QNzZe0teI0_ITFgdCW5F_ivIQF-YNp5WYpEZ5gUBaDCjkf8KjfKXxFdcCyvstW_22Fb8fjGrJs5zp8w_0MrtbpGiXEearzha-eUdPr5dN-MwQ8viSxmDpYBJOTm00]--></g></svg>