<svg xmlns="http://www.w3.org/2000/svg" xmlns:xlink="http://www.w3.org/1999/xlink" contentStyleType="text/css" data-diagram-type="DESCRIPTION" height="661px" preserveAspectRatio="none" style="width:2201px;height:661px;background:#FFFFFF;" version="1.1" viewBox="0 0 2201 661" width="2201px" zoomAndPan="magnify"><title>DFD: &#1057;&#1076;&#1072;&#1095;&#1072; &#1083;&#1072;&#1073;&#1086;&#1088;&#1072;&#1090;&#1086;&#1088;&#1085;&#1099;&#1093; &#1072;&#1085;&#1072;&#1083;&#1080;&#1079;&#1086;&#1074; (TO-BE)</title><defs/><g><g class="title" data-source-line="3"><text fill="#000000" font-family="sans-serif" font-size="14" font-weight="bold" lengthAdjust="spacing" textLength="319.0027" x="934.4935" y="24.9659">DFD: &#1057;&#1076;&#1072;&#1095;&#1072; &#1083;&#1072;&#1073;&#1086;&#1088;&#1072;&#1090;&#1086;&#1088;&#1085;&#1099;&#1093; &#1072;&#1085;&#1072;&#1083;&#1080;&#1079;&#1086;&#1074; (TO-BE)</text></g><!--entity creator--><g class="entity" data-entity="creator" data-source-line="29" data-uid="ent0002" id="entity_creator"><ellipse cx="60.0188" cy="471.8769" fill="#F1F1F1" rx="8" ry="8" style="stroke:#181818;stroke-width:0.5;"/><path d="M60.0188,479.8769 L60.0188,506.8769 M47.0188,487.8769 L73.0188,487.8769 M60.0188,506.8769 L47.0188,521.8769 M60.0188,506.8769 L73.0188,521.8769" fill="none" style="stroke:#181818;stroke-width:0.5;"/><text fill="#000000" font-family="sans-serif" font-size="14" lengthAdjust="spacing" textLength="108.0376" x="6" y="538.3429">&#1040;&#1076;&#1084;&#1080;&#1085;&#1080;&#1089;&#1090;&#1088;&#1072;&#1090;&#1086;&#1088;</text><text fill="#000000" font-family="sans-serif" font-size="14" lengthAdjust="spacing" textLength="63.8818" x="6" y="557.4108">&#1080;&#1083;&#1080; &#1042;&#1088;&#1072;&#1095;</text></g><!--entity nurse--><g class="entity" data-entity="nurse" data-source-line="30" data-uid="ent0003" id="entity_nurse"><ellipse cx="649.5959" cy="337.3769" fill="#F1F1F1" rx="8" ry="8" style="stroke:#181818;stroke-width:0.5;"/><path d="M649.5959,345.3769 L649.5959,372.3769 M636.5959,353.3769 L662.5959,353.3769 M649.5959,372.3769 L636.5959,387.3769 M649.5959,372.3769 L662.5959,387.3769" fill="none" style="stroke:#181818;stroke-width:0.5;"/><text fill="#000000" font-family="sans-serif" font-size="14" lengthAdjust="spacing" textLength="73.1917" x="613" y="403.8429">&#1052;&#1077;&#1076;&#1089;&#1077;&#1089;&#1090;&#1088;&#1072;</text></g><!--entity patient--><g class="entity" data-entity="patient" data-source-line="31" data-uid="ent0004" id="entity_patient"><ellipse cx="355.2079" cy="414.3769" fill="#F1F1F1" rx="8" ry="8" style="stroke:#181818;stroke-width:0.5;"/><path d="M355.2079,422.3769 L355.2079,449.3769 M342.2079,430.3769 L368.2079,430.3769 M355.2079,449.3769 L342.2079,464.3769 M355.2079,449.3769 L368.2079,464.3769" fill="none" style="stroke:#181818;stroke-width:0.5;"/><text fill="#000000" font-family="sans-serif" font-size="14" lengthAdjust="spacing" textLength="59.4158" x="325.5" y="480.8429">&#1055;&#1072;&#1094;&#1080;&#1077;&#1085;&#1090;</text></g><!--entity crm_db--><g class="entity" data-entity="crm_db" data-source-line="33" data-uid="ent0005" id="entity_crm_db"><path d="M2071.5,546.8769 C2071.5,536.8769 2124.1718,536.8769 2124.1718,536.8769 C2124.1718,536.8769 2176.8437,536.8769 2176.8437,546.8769 L2176.8437,594.0128 C2176.8437,604.0128 2124.1718,604.0128 2124.1718,604.0128 C2124.1718,604.0128 2071.5,604.0128 2071.5,594.0128 L2071.5,546.8769" fill="#CCE5FF" style="stroke:#181818;stroke-width:0.5;"/><path d="M2071.5,546.8769 C2071.5,556.8769 2124.1718,556.8769 2124.1718,556.8769 C2124.1718,556.8769 2176.8437,556.8769 2176.8437,546.8769" fill="none" style="stroke:#181818;stroke-width:0.5;"/><text fill="#000000" font-family="sans-serif" font-size="14" lengthAdjust="spacing" textLength="53.2138" x="2081.5" y="575.8429">CRM DB</text><text fill="#000000" font-family="sans-serif" font-size="14" lengthAdjust="spacing" textLength="85.3437" x="2081.5" y="594.9108">(PostgreSQL)</text></g><!--entity medrecord_db--><g class="entity" data-entity="medrecord_db" data-source-line="34" data-uid="ent0006" id="entity_medrecord_db"><path d="M2063,196.8769 C2063,186.8769 2123.9948,186.8769 2123.9948,186.8769 C2123.9948,186.8769 2184.9896,186.8769 2184.9896,196.8769 L2184.9896,244.0128 C2184.9896,254.0128 2123.9948,254.0128 2123.9948,254.0128 C2123.9948,254.0128 2063,254.0128 2063,244.0128 L2063,196.8769" fill="#CCE5FF" style="stroke:#181818;stroke-width:0.5;"/><path d="M2063,196.8769 C2063,206.8769 2123.9948,206.8769 2123.9948,206.8769 C2123.9948,206.8769 2184.9896,206.8769 2184.9896,196.8769" fill="none" style="stroke:#181818;stroke-width:0.5;"/><text fill="#000000" font-family="sans-serif" font-size="14" lengthAdjust="spacing" textLength="101.9896" x="2073" y="225.8429">Med Record DB</text><text fill="#000000" font-family="sans-serif" font-size="14" lengthAdjust="spacing" textLength="85.3437" x="2073" y="244.9108">(PostgreSQL)</text></g><!--entity consent_db--><g class="entity" data-entity="consent_db" data-source-line="35" data-uid="ent0007" id="entity_consent_db"><path d="M2071.5,369.8769 C2071.5,359.8769 2124.1718,359.8769 2124.1718,359.8769 C2124.1718,359.8769 2176.8437,359.8769 2176.8437,369.8769 L2176.8437,417.0128 C2176.8437,427.0128 2124.1718,427.0128 2124.1718,427.0128 C2124.1718,427.0128 2071.5,427.0128 2071.5,417.0128 L2071.5,369.8769" fill="#CCE5FF" style="stroke:#181818;stroke-width:0.5;"/><path d="M2071.5,369.8769 C2071.5,379.8769 2124.1718,379.8769 2124.1718,379.8769 C2124.1718,379.8769 2176.8437,379.8769 2176.8437,369.8769" fill="none" style="stroke:#181818;stroke-width:0.5;"/><text fill="#000000" font-family="sans-serif" font-size="14" lengthAdjust="spacing" textLength="77.2377" x="2081.5" y="398.8429">Consent DB</text><text fill="#000000" font-family="sans-serif" font-size="14" lengthAdjust="spacing" textLength="85.3437" x="2081.5" y="417.9108">(PostgreSQL)</text></g><!--entity lab_portal--><g class="entity" data-entity="lab_portal" data-source-line="36" data-uid="ent0008" id="entity_lab_portal"><path d="M1369.5,250.3769 C1369.5,240.3769 1425.0068,240.3769 1425.0068,240.3769 C1425.0068,240.3769 1480.5137,240.3769 1480.5137,250.3769 L1480.5137,316.5807 C1480.5137,326.5807 1425.0068,326.5807 1425.0068,326.5807 C1425.0068,326.5807 1369.5,326.5807 1369.5,316.5807 L1369.5,250.3769" fill="#E0E0E0" style="stroke:#181818;stroke-width:0.5;"/><path d="M1369.5,250.3769 C1369.5,260.3769 1425.0068,260.3769 1425.0068,260.3769 C1425.0068,260.3769 1480.5137,260.3769 1480.5137,250.3769" fill="none" style="stroke:#181818;stroke-width:0.5;"/><text fill="#000000" font-family="sans-serif" font-size="14" font-style="italic" lengthAdjust="spacing" textLength="63.9798" x="1393.017" y="279.3429">&#171;external&#187;</text><text fill="#000000" font-family="sans-serif" font-size="14" lengthAdjust="spacing" textLength="49.9238" x="1379.5" y="298.4108">&#1055;&#1086;&#1088;&#1090;&#1072;&#1083;</text><text fill="#000000" font-family="sans-serif" font-size="14" lengthAdjust="spacing" textLength="91.0137" x="1379.5" y="317.4787">&#1083;&#1072;&#1073;&#1086;&#1088;&#1072;&#1090;&#1086;&#1088;&#1080;&#1080;</text></g><!--entity email--><g class="entity" data-entity="email" data-source-line="37" data-uid="ent0009" id="entity_email"><path d="M1721.5,169.3769 C1721.5,159.3769 1775.1938,159.3769 1775.1938,159.3769 C1775.1938,159.3769 1828.8876,159.3769 1828.8876,169.3769 L1828.8876,235.5807 C1828.8876,245.5807 1775.1938,245.5807 1775.1938,245.5807 C1775.1938,245.5807 1721.5,245.5807 1721.5,235.5807 L1721.5,169.3769" fill="#E0E0E0" style="stroke:#181818;stroke-width:0.5;"/><path d="M1721.5,169.3769 C1721.5,179.3769 1775.1938,179.3769 1775.1938,179.3769 C1775.1938,179.3769 1828.8876,179.3769 1828.8876,169.3769" fill="none" style="stroke:#181818;stroke-width:0.5;"/><text fill="#000000" font-family="sans-serif" font-size="14" font-style="italic" lengthAdjust="spacing" textLength="63.9798" x="1743.2039" y="198.3429">&#171;external&#187;</text><text fill="#000000" font-family="sans-serif" font-size="14" lengthAdjust="spacing" textLength="35.9519" x="1731.5" y="217.4108">Email</text><text fill="#000000" font-family="sans-serif" font-size="14" lengthAdjust="spacing" textLength="87.3876" x="1731.5" y="236.4787">(&#1088;&#1077;&#1079;&#1091;&#1083;&#1100;&#1090;&#1072;&#1090;&#1099;)</text></g><!--entity webapp_create--><g class="entity" data-entity="webapp_create" data-source-line="42" data-uid="ent0010" id="entity_webapp_create"><rect fill="#CCFFCC" height="58.1358" rx="10" ry="10" style="stroke:#000000;stroke-width:0.5;" width="187.6634" x="261" y="534.3769"/><text fill="#000000" font-family="sans-serif" font-size="14" lengthAdjust="spacing" textLength="59.3318" x="271" y="559.3429">Web App</text><text fill="#000000" font-family="sans-serif" font-size="14" lengthAdjust="spacing" textLength="167.6634" x="271" y="578.4108">(&#1089;&#1086;&#1079;&#1076;&#1072;&#1085;&#1080;&#1077; &#1085;&#1072;&#1087;&#1088;&#1072;&#1074;&#1083;&#1077;&#1085;&#1080;&#1103;)</text></g><!--entity crm_save--><g class="entity" data-entity="crm_save" data-source-line="43" data-uid="ent0011" id="entity_crm_save"><rect fill="#CCFFCC" height="58.1358" rx="10" ry="10" style="stroke:#000000;stroke-width:0.5;" width="205.4993" x="716" y="597.3769"/><text fill="#000000" font-family="sans-serif" font-size="14" lengthAdjust="spacing" textLength="56.0558" x="726" y="622.3429">CRM API</text><text fill="#000000" font-family="sans-serif" font-size="14" lengthAdjust="spacing" textLength="185.4993" x="726" y="641.4108">(&#1089;&#1086;&#1093;&#1088;&#1072;&#1085;&#1077;&#1085;&#1080;&#1077; &#1085;&#1072;&#1087;&#1088;&#1072;&#1074;&#1083;&#1077;&#1085;&#1080;&#1103;)</text></g><!--entity webapp_search--><g class="entity" data-entity="webapp_search" data-source-line="44" data-uid="ent0012" id="entity_webapp_search"><rect fill="#CCFFCC" height="58.1358" rx="10" ry="10" style="stroke:#000000;stroke-width:0.5;" width="164.1434" x="951.5" y="442.3769"/><text fill="#000000" font-family="sans-serif" font-size="14" lengthAdjust="spacing" textLength="59.3318" x="961.5" y="467.3429">Web App</text><text fill="#000000" font-family="sans-serif" font-size="14" lengthAdjust="spacing" textLength="144.1434" x="961.5" y="486.4108">(&#1087;&#1086;&#1080;&#1089;&#1082; &#1085;&#1072;&#1087;&#1088;&#1072;&#1074;&#1083;&#1077;&#1085;&#1080;&#1103;)</text></g><!--entity auth_proxy--><g class="entity" data-entity="auth_proxy" data-source-line="45" data-uid="ent0013" id="entity_auth_proxy"><rect fill="#CCFFCC" height="39.0679" rx="10" ry="10" style="stroke:#000000;stroke-width:0.5;" width="92.2117" x="1379" y="453.8769"/><text fill="#000000" font-family="sans-serif" font-size="14" lengthAdjust="spacing" textLength="72.2117" x="1389" y="478.8429">Auth Proxy</text></g><!--entity consent_check--><g class="entity" data-entity="consent_check" data-source-line="46" data-uid="ent0014" id="entity_consent_check"><rect fill="#CCFFCC" height="39.0679" rx="10" ry="10" style="stroke:#000000;stroke-width:0.5;" width="163.0655" x="1693.5" y="373.8769"/><text fill="#000000" font-family="sans-serif" font-size="14" lengthAdjust="spacing" textLength="143.0655" x="1703.5" y="398.8429">Consent Manager API</text></g><!--entity crm_get--><g class="entity" data-entity="crm_get" data-source-line="47" data-uid="ent0015" id="entity_crm_get"><rect fill="#CCFFCC" height="58.1358" rx="10" ry="10" style="stroke:#000000;stroke-width:0.5;" width="176.4214" x="1687" y="541.3769"/><text fill="#000000" font-family="sans-serif" font-size="14" lengthAdjust="spacing" textLength="56.0558" x="1697" y="566.3429">CRM API</text><text fill="#000000" font-family="sans-serif" font-size="14" lengthAdjust="spacing" textLength="156.4214" x="1697" y="585.4108">(&#1076;&#1072;&#1085;&#1085;&#1099;&#1077; &#1085;&#1072;&#1087;&#1088;&#1072;&#1074;&#1083;&#1077;&#1085;&#1080;&#1103;)</text></g><!--entity medrecord_get--><g class="entity" data-entity="medrecord_get" data-source-line="48" data-uid="ent0016" id="entity_medrecord_get"><rect fill="#CCFFCC" height="58.1358" rx="10" ry="10" style="stroke:#000000;stroke-width:0.5;" width="124.8316" x="1712.5" y="280.3769"/><text fill="#000000" font-family="sans-serif" font-size="14" lengthAdjust="spacing" textLength="104.8316" x="1722.5" y="305.3429">Med Record API</text><text fill="#000000" font-family="sans-serif" font-size="14" lengthAdjust="spacing" textLength="101.8216" x="1722.5" y="324.4108">(&#1082;&#1083;&#1080;&#1085;. &#1076;&#1072;&#1085;&#1085;&#1099;&#1077;)</text></g><!--entity lab_browser--><g class="entity" data-entity="lab_browser" data-source-line="49" data-uid="ent0017" id="entity_lab_browser"><rect fill="#E0E0E0" height="77.2038" rx="10" ry="10" style="stroke:#000000;stroke-width:0.5;" width="164.5775" x="951" y="329.8769"/><text fill="#000000" font-family="sans-serif" font-size="14" font-style="italic" lengthAdjust="spacing" textLength="116.4936" x="975.0419" y="354.8429">&#171;external_process&#187;</text><text fill="#000000" font-family="sans-serif" font-size="14" lengthAdjust="spacing" textLength="144.5775" x="961" y="373.9108">&#1055;&#1086;&#1088;&#1090;&#1072;&#1083; &#1083;&#1072;&#1073;&#1086;&#1088;&#1072;&#1090;&#1086;&#1088;&#1080;&#1080;</text><text fill="#000000" font-family="sans-serif" font-size="14" lengthAdjust="spacing" textLength="63.7558" x="961" y="392.9787">(&#1073;&#1088;&#1072;&#1091;&#1079;&#1077;&#1088;)</text></g><!--entity crm_update--><g class="entity" data-entity="crm_update" data-source-line="50" data-uid="ent0018" id="entity_crm_update"><rect fill="#CCFFCC" height="58.1358" rx="10" ry="10" style="stroke:#000000;stroke-width:0.5;" width="146.9655" x="1701.5" y="448.3769"/><text fill="#000000" font-family="sans-serif" font-size="14" lengthAdjust="spacing" textLength="56.0558" x="1711.5" y="473.3429">CRM API</text><text fill="#000000" font-family="sans-serif" font-size="14" lengthAdjust="spacing" textLength="126.9655" x="1711.5" y="492.4108">(&#1086;&#1090;&#1084;&#1077;&#1090;&#1082;&#1072; &#1086; &#1074;&#1079;&#1103;&#1090;&#1080;&#1080;)</text></g><!--entity medrecord_save--><g class="entity" data-entity="medrecord_save" data-source-line="51" data-uid="ent0019" id="entity_medrecord_save"><rect fill="#CCFFCC" height="58.1358" rx="10" ry="10" style="stroke:#000000;stroke-width:0.5;" width="181.9793" x="1146" y="79.3769"/><text fill="#000000" font-family="sans-serif" font-size="14" lengthAdjust="spacing" textLength="104.8316" x="1156" y="104.3429">Med Record API</text><text fill="#000000" font-family="sans-serif" font-size="14" lengthAdjust="spacing" textLength="161.9793" x="1156" y="123.4108">(&#1074;&#1085;&#1077;&#1089;&#1077;&#1085;&#1080;&#1077; &#1088;&#1077;&#1079;&#1091;&#1083;&#1100;&#1090;&#1072;&#1090;&#1086;&#1074;)</text></g><!--link creator to webapp_create--><g class="link" data-entity-1="creator" data-entity-2="webapp_create" data-source-line="56" data-uid="lnk20" id="link_creator_webapp_create"><path d="M114.23,536.9869 C123.96,540.6669 134.16,544.0269 144,546.3769 C181.62,555.3769 218.0001,559.4884 254.7801,561.6284" fill="none" id="creator-to-webapp_create" style="stroke:#181818;stroke-width:1;"/><polygon fill="#181818" points="260.77,561.9769,252.0175,557.4609,255.7784,561.6865,251.5529,565.4474,260.77,561.9769" style="stroke:#181818;stroke-width:1;"/><text fill="#000000" font-family="sans-serif" font-size="13" lengthAdjust="spacing" textLength="61.269" x="156.973" y="524.2739">&#1057;&#1086;&#1079;&#1076;&#1072;&#1085;&#1080;&#1077;</text><text fill="#000000" font-family="sans-serif" font-size="13" lengthAdjust="spacing" textLength="85.2151" x="145" y="541.9799">&#1085;&#1072;&#1087;&#1088;&#1072;&#1074;&#1083;&#1077;&#1085;&#1080;&#1103;</text></g><!--link webapp_create to crm_save--><g class="link" data-entity-1="webapp_create" data-entity-2="crm_save" data-source-line="57" data-uid="lnk21" id="link_webapp_create_crm_save"><path d="M449.11,576.0869 C526.39,586.6369 630.1851,600.8056 709.7651,611.6656" fill="none" id="webapp_create-to-crm_save" style="stroke:#181818;stroke-width:1;"/><polygon fill="#181818" points="715.71,612.4769,707.3335,607.2967,710.7559,611.8009,706.2518,615.2233,715.71,612.4769" style="stroke:#181818;stroke-width:1;"/><text fill="#000000" font-family="sans-serif" font-size="13" lengthAdjust="spacing" textLength="77.831" x="492.5" y="576.2739">&#1057;&#1086;&#1093;&#1088;&#1072;&#1085;&#1077;&#1085;&#1080;&#1077;</text></g><!--link crm_save to crm_db--><g class="link" data-entity-1="crm_save" data-entity-2="crm_db" data-source-line="58" data-uid="lnk22" id="link_crm_save_crm_db"><path d="M921.23,636.2769 C1005.49,643.6269 1128.41,652.3769 1236,652.3769 C1236,652.3769 1236,652.3769 1776,652.3769 C1883.25,652.3769 1998.6187,616.8603 2065.6487,592.5803" fill="none" id="crm_save-to-crm_db" style="stroke:#181818;stroke-width:1;"/><polygon fill="#181818" points="2071.29,590.5369,2061.4657,589.8412,2066.5889,592.2398,2064.1903,597.3629,2071.29,590.5369" style="stroke:#181818;stroke-width:1;"/><text fill="#000000" font-family="sans-serif" font-size="13" lengthAdjust="spacing" textLength="132.6261" x="1359" y="648.2739">INSERT &#1085;&#1072;&#1087;&#1088;&#1072;&#1074;&#1083;&#1077;&#1085;&#1080;&#1077;</text></g><!--link creator to patient--><g class="link" data-entity-1="creator" data-entity-2="patient" data-source-line="59" data-uid="lnk23" id="link_creator_patient"><path d="M114.06,500.2469 C176.07,486.0669 270.5507,464.4534 319.4807,453.2734" fill="none" id="creator-to-patient" style="stroke:#181818;stroke-width:1;"/><polygon fill="#181818" points="325.33,451.9369,315.6651,450.0422,320.4556,453.0507,317.4471,457.8412,325.33,451.9369" style="stroke:#181818;stroke-width:1;"/><text fill="#000000" font-family="sans-serif" font-size="13" lengthAdjust="spacing" textLength="72.462" x="151.3765" y="452.2739">&#1056;&#1072;&#1089;&#1087;&#1077;&#1095;&#1072;&#1090;&#1082;&#1072;</text><text fill="#000000" font-family="sans-serif" font-size="13" lengthAdjust="spacing" textLength="85.2151" x="145" y="469.9799">&#1085;&#1072;&#1087;&#1088;&#1072;&#1074;&#1083;&#1077;&#1085;&#1080;&#1103;</text></g><!--link patient to nurse--><g class="link" data-entity-1="patient" data-entity-2="nurse" data-source-line="60" data-uid="lnk24" id="link_patient_nurse"><path d="M384.66,435.8669 C409.47,427.7969 446.41,416.1469 479,407.3769 C524.92,395.0169 572.6319,384.3579 607.0619,377.0179" fill="none" id="patient-to-nurse" style="stroke:#181818;stroke-width:1;"/><polygon fill="#181818" points="612.93,375.7669,603.2938,373.7313,608.0399,376.8094,604.9618,381.5555,612.93,375.7669" style="stroke:#181818;stroke-width:1;"/><text fill="#000000" font-family="sans-serif" font-size="13" lengthAdjust="spacing" textLength="76.323" x="492.9785" y="360.2739">&#1055;&#1086;&#1082;&#1072;&#1079;&#1099;&#1074;&#1072;&#1077;&#1090;</text><text fill="#000000" font-family="sans-serif" font-size="13" lengthAdjust="spacing" textLength="85.2801" x="488.5" y="377.9799">&#1085;&#1072;&#1087;&#1088;&#1072;&#1074;&#1083;&#1077;&#1085;&#1080;&#1077;</text></g><!--link nurse to patient--><g class="link" data-entity-1="nurse" data-entity-2="patient" data-source-line="72" data-uid="lnk36" id="link_nurse_patient"><path d="M628.17,408.2569 C617.27,425.1469 602.11,443.0469 583,452.3769 C517.99,484.1269 435.324,468.3624 390.444,455.9824" fill="none" id="nurse-to-patient" style="stroke:#181818;stroke-width:1;"/><polygon fill="#181818" points="384.66,454.3869,392.2723,460.6361,389.48,455.7165,394.3996,452.9242,384.66,454.3869" style="stroke:#181818;stroke-width:1;"/><text fill="#000000" font-family="sans-serif" font-size="13" lengthAdjust="spacing" textLength="64.7401" x="498.941" y="430.2739">&#1055;&#1088;&#1086;&#1073;&#1080;&#1088;&#1082;&#1080;</text><text fill="#000000" font-family="sans-serif" font-size="13" lengthAdjust="spacing" textLength="102.6221" x="480" y="447.9799">&#1089;&#1086; &#1096;&#1090;&#1088;&#1080;&#1093;-&#1082;&#1086;&#1076;&#1086;&#1084;</text></g><!--link nurse to webapp_search--><g class="link" data-entity-1="nurse" data-entity-2="webapp_search" data-source-line="61" data-uid="lnk25" id="link_nurse_webapp_search"><path d="M686.16,384.2469 C695.74,388.1869 706.17,392.1969 716,395.3769 C794.62,420.8469 880.8367,440.8005 945.3467,454.2705" fill="none" id="nurse-to-webapp_search" style="stroke:#181818;stroke-width:1;"/><polygon fill="#181818" points="951.22,455.4969,943.2276,449.7418,946.3256,454.4749,941.5924,457.5729,951.22,455.4969" style="stroke:#181818;stroke-width:1;"/><text fill="#000000" font-family="sans-serif" font-size="13" lengthAdjust="spacing" textLength="127.4391" x="755" y="391.2739">&#1055;&#1086;&#1080;&#1089;&#1082; &#1085;&#1072;&#1087;&#1088;&#1072;&#1074;&#1083;&#1077;&#1085;&#1080;&#1103;</text></g><!--link webapp_search to auth_proxy--><g class="link" data-entity-1="webapp_search" data-entity-2="auth_proxy" data-source-line="62" data-uid="lnk26" id="link_webapp_search_auth_proxy"><path d="M1115.68,471.7969 C1195.49,472.2069 1308.4301,472.7861 1372.7601,473.1161" fill="none" id="webapp_search-to-auth_proxy" style="stroke:#181818;stroke-width:1;"/><polygon fill="#181818" points="1378.76,473.1469,1369.7806,469.1008,1373.7601,473.1213,1369.7396,477.1007,1378.76,473.1469" style="stroke:#181818;stroke-width:1;"/><text fill="#000000" font-family="sans-serif" font-size="13" lengthAdjust="spacing" textLength="45.149" x="1214.5" y="467.2739">&#1047;&#1072;&#1087;&#1088;&#1086;&#1089;</text></g><!--link auth_proxy to consent_check--><g class="link" data-entity-1="auth_proxy" data-entity-2="consent_check" data-source-line="63" data-uid="lnk27" id="link_auth_proxy_consent_check"><path d="M1471.29,460.5769 C1487.27,456.2069 1505.39,451.4069 1522,447.3769 C1579.07,433.5469 1637.983,420.9055 1687.583,410.7055" fill="none" id="auth_proxy-to-consent_check" style="stroke:#181818;stroke-width:1;"/><polygon fill="#181818" points="1693.46,409.4969,1683.8388,407.3918,1688.5625,410.5041,1685.4502,415.2278,1693.46,409.4969" style="stroke:#181818;stroke-width:1;"/><text fill="#000000" font-family="sans-serif" font-size="13" lengthAdjust="spacing" textLength="83.9281" x="1548" y="413.2739">&#1055;&#1088;&#1086;&#1074;&#1077;&#1088;&#1082;&#1072; &#1048;&#1057;</text></g><!--reverse link consent_check to consent_db--><g class="link" data-entity-1="consent_check" data-entity-2="consent_db" data-source-line="64" data-uid="lnk28" id="link_consent_check_consent_db"><path d="M1862.92,393.3769 C1929.11,393.3769 2014.72,393.3769 2071.35,393.3769" fill="none" id="consent_check-backto-consent_db" style="stroke:#181818;stroke-width:1;"/><polygon fill="#181818" points="1856.92,393.3769,1865.92,397.3769,1861.92,393.3769,1865.92,389.3769,1856.92,393.3769" style="stroke:#181818;stroke-width:1;"/><text fill="#000000" font-family="sans-serif" font-size="13" lengthAdjust="spacing" textLength="39.78" x="1943.5" y="389.2739">&#1048;&#1057; OK</text></g><!--link auth_proxy to crm_get--><g class="link" data-entity-1="auth_proxy" data-entity-2="crm_get" data-source-line="65" data-uid="lnk29" id="link_auth_proxy_crm_get"><path d="M1471.33,487.3769 C1487.32,492.2269 1505.43,497.6369 1522,502.3769 C1576.68,518.0069 1632.5109,533.1174 1681.1409,546.0274" fill="none" id="auth_proxy-to-crm_get" style="stroke:#181818;stroke-width:1;"/><polygon fill="#181818" points="1686.94,547.5669,1679.2677,541.3916,1682.1074,546.284,1677.215,549.1237,1686.94,547.5669" style="stroke:#181818;stroke-width:1;"/><text fill="#000000" font-family="sans-serif" font-size="13" lengthAdjust="spacing" textLength="133.7441" x="1523" y="498.2739">&#1047;&#1072;&#1087;&#1088;&#1086;&#1089; &#1085;&#1072;&#1087;&#1088;&#1072;&#1074;&#1083;&#1077;&#1085;&#1080;&#1103;</text></g><!--reverse link crm_get to crm_db--><g class="link" data-entity-1="crm_get" data-entity-2="crm_db" data-source-line="66" data-uid="lnk30" id="link_crm_get_crm_db"><path d="M1869.11,570.3769 C1934.76,570.3769 2016.56,570.3769 2071.44,570.3769" fill="none" id="crm_get-backto-crm_db" style="stroke:#181818;stroke-width:1;"/><polygon fill="#181818" points="1863.11,570.3769,1872.11,574.3769,1868.11,570.3769,1872.11,566.3769,1863.11,570.3769" style="stroke:#181818;stroke-width:1;"/><text fill="#000000" font-family="sans-serif" font-size="13" lengthAdjust="spacing" textLength="138.8791" x="1894" y="566.2739">&#1044;&#1072;&#1085;&#1085;&#1099;&#1077; &#1085;&#1072;&#1087;&#1088;&#1072;&#1074;&#1083;&#1077;&#1085;&#1080;&#1103;</text></g><!--link auth_proxy to medrecord_get--><g class="link" data-entity-1="auth_proxy" data-entity-2="medrecord_get" data-source-line="67" data-uid="lnk31" id="link_auth_proxy_medrecord_get"><path d="M1444.09,453.6969 C1462.2,435.0469 1491.65,407.4269 1522,390.3769 C1582.59,356.3269 1653.7082,335.6056 1706.5482,323.2256" fill="none" id="auth_proxy-to-medrecord_get" style="stroke:#181818;stroke-width:1;"/><polygon fill="#181818" points="1712.39,321.8569,1702.7148,320.0154,1707.5218,322.9975,1704.5398,327.8045,1712.39,321.8569" style="stroke:#181818;stroke-width:1;"/><text fill="#000000" font-family="sans-serif" font-size="13" lengthAdjust="spacing" textLength="118.5731" x="1530.5" y="332.2739">&#1044;&#1086;&#1087;. &#1082;&#1083;&#1080;&#1085;. &#1076;&#1072;&#1085;&#1085;&#1099;&#1077;</text></g><!--reverse link medrecord_get to medrecord_db--><g class="link" data-entity-1="medrecord_get" data-entity-2="medrecord_db" data-source-line="68" data-uid="lnk32" id="link_medrecord_get_medrecord_db"><path d="M1843.4518,292.076 C1907.0318,275.766 1999.76,251.9869 2062.81,235.8169" fill="none" id="medrecord_get-backto-medrecord_db" style="stroke:#181818;stroke-width:1;"/><polygon fill="#181818" points="1837.64,293.5669,1847.3517,295.2051,1842.4832,292.3245,1845.3638,287.456,1837.64,293.5669" style="stroke:#181818;stroke-width:1;"/><text fill="#000000" font-family="sans-serif" font-size="13" lengthAdjust="spacing" textLength="87.9061" x="1919.5" y="240.2739">&#1050;&#1083;&#1080;&#1085;. &#1076;&#1072;&#1085;&#1085;&#1099;&#1077;</text></g><!--link nurse to lab_browser--><g class="link" data-entity-1="nurse" data-entity-2="lab_browser" data-source-line="69" data-uid="lnk33" id="link_nurse_lab_browser"><path d="M686.09,368.3769 C746.11,368.3769 862.88,368.3769 944.96,368.3769" fill="none" id="nurse-to-lab_browser" style="stroke:#181818;stroke-width:1;"/><polygon fill="#181818" points="950.96,368.3769,941.96,364.3769,945.96,368.3769,941.96,372.3769,950.96,368.3769" style="stroke:#181818;stroke-width:1;"/><text fill="#000000" font-family="sans-serif" font-size="13" lengthAdjust="spacing" textLength="111.9821" x="763" y="346.2739">&#1050;&#1086;&#1087;&#1080;&#1087;&#1072;&#1089;&#1090; &#1076;&#1072;&#1085;&#1085;&#1099;&#1093;</text><text fill="#000000" font-family="sans-serif" font-size="13" lengthAdjust="spacing" textLength="105.8591" x="766.0615" y="363.9799">+ &#1060;&#1048;&#1054; &#1087;&#1072;&#1094;&#1080;&#1077;&#1085;&#1090;&#1072;</text></g><!--link lab_browser to lab_portal--><g class="link" data-entity-1="lab_browser" data-entity-2="lab_portal" data-source-line="70" data-uid="lnk34" id="link_lab_browser_lab_portal"><path d="M1116.11,350.5969 C1175,337.7669 1256.41,320.0069 1328,304.3769 C1341.42,301.4469 1350.0293,299.5725 1363.5693,296.6025" fill="none" id="lab_browser-to-lab_portal" style="stroke:#181818;stroke-width:1;"/><polygon fill="#181818" points="1369.43,295.3169,1359.782,293.3381,1364.5461,296.3882,1361.496,301.1523,1369.43,295.3169" style="stroke:#181818;stroke-width:1;"/><text fill="#000000" font-family="sans-serif" font-size="13" lengthAdjust="spacing" textLength="121.4201" x="1176.5" y="300.2739">&#1047;&#1072;&#1103;&#1074;&#1082;&#1072; &#1085;&#1072; &#1072;&#1085;&#1072;&#1083;&#1080;&#1079;&#1099;</text></g><!--link lab_portal to nurse--><g class="link" data-entity-1="lab_portal" data-entity-2="nurse" data-source-line="71" data-uid="lnk35" id="link_lab_portal_nurse"><path d="M1369.43,282.0469 C1355.89,281.7669 1341.42,281.5169 1328,281.3769 C1055.38,278.5369 972.14,229.9769 716,323.3769 C705.63,327.1569 700.3315,329.6226 691.0815,335.8326" fill="none" id="lab_portal-to-nurse" style="stroke:#181818;stroke-width:1;"/><polygon fill="#181818" points="686.1,339.1769,695.8018,337.4814,690.2513,336.39,691.3427,330.8394,686.1,339.1769" style="stroke:#181818;stroke-width:1;"/><text fill="#000000" font-family="sans-serif" font-size="13" lengthAdjust="spacing" textLength="79.4951" x="994" y="262.2739">&#1064;&#1090;&#1088;&#1080;&#1093;-&#1082;&#1086;&#1076;&#1099;</text></g><!--link nurse to auth_proxy--><g class="link" data-entity-1="nurse" data-entity-2="auth_proxy" data-source-line="73" data-uid="lnk37" id="link_nurse_auth_proxy"><path d="M672.72,408.1869 C683.83,425.0369 698.63,443.6769 716,456.3769 C805.17,521.5869 842.04,519.1269 951,537.3769 C1107.51,563.5969 1288.8116,516.5616 1373.1316,490.2916" fill="none" id="nurse-to-auth_proxy" style="stroke:#181818;stroke-width:1;"/><polygon fill="#181818" points="1378.86,488.5069,1369.0776,487.365,1374.0863,489.9942,1371.4572,495.0029,1378.86,488.5069" style="stroke:#181818;stroke-width:1;"/><text fill="#000000" font-family="sans-serif" font-size="13" lengthAdjust="spacing" textLength="112.3851" x="977.5" y="533.2739">&#1054;&#1090;&#1084;&#1077;&#1090;&#1082;&#1072; &#1086; &#1074;&#1079;&#1103;&#1090;&#1080;&#1080;</text></g><!--link auth_proxy to crm_update--><g class="link" data-entity-1="auth_proxy" data-entity-2="crm_update" data-source-line="74" data-uid="lnk38" id="link_auth_proxy_crm_update"><path d="M1471.14,473.8969 C1529.53,474.5669 1625.9704,475.6778 1695.3704,476.4778" fill="none" id="auth_proxy-to-crm_update" style="stroke:#181818;stroke-width:1;"/><polygon fill="#181818" points="1701.37,476.5469,1692.4167,472.4434,1696.3703,476.4893,1692.3245,480.4429,1701.37,476.5469" style="stroke:#181818;stroke-width:1;"/><text fill="#000000" font-family="sans-serif" font-size="13" lengthAdjust="spacing" textLength="49.621" x="1565" y="470.2739">UPDATE</text></g><!--link crm_update to crm_db--><g class="link" data-entity-1="crm_update" data-entity-2="crm_db" data-source-line="75" data-uid="lnk39" id="link_crm_update_crm_db"><path d="M1848.77,495.2369 C1900.34,508.0969 1971.09,526.1469 2033,543.3769 C2045.42,546.8369 2052.9909,549.01 2065.4809,552.74" fill="none" id="crm_update-to-crm_db" style="stroke:#181818;stroke-width:1;"/><polygon fill="#181818" points="2071.23,554.4569,2063.7509,548.0488,2066.4391,553.0262,2061.4617,555.7143,2071.23,554.4569" style="stroke:#181818;stroke-width:1;"/><text fill="#000000" font-family="sans-serif" font-size="13" lengthAdjust="spacing" textLength="89.1411" x="1918.5" y="484.2739">status = taken,</text><text fill="#000000" font-family="sans-serif" font-size="13" lengthAdjust="spacing" textLength="60.2941" x="1932.9235" y="501.9799">&#8470; &#1079;&#1072;&#1103;&#1074;&#1082;&#1080;</text></g><!--link lab_portal to email--><g class="link" data-entity-1="lab_portal" data-entity-2="email" data-source-line="76" data-uid="lnk40" id="link_lab_portal_email"><path d="M1480.91,279.3769 C1528.21,275.0269 1597.97,266.4369 1657,250.3769 C1678.61,244.4969 1696.0541,238.0481 1715.8641,229.5681" fill="none" id="lab_portal-to-email" style="stroke:#181818;stroke-width:1;"/><polygon fill="#181818" points="1721.38,227.2069,1711.5321,227.0714,1716.7834,229.1746,1714.6803,234.4259,1721.38,227.2069" style="stroke:#181818;stroke-width:1;"/><text fill="#000000" font-family="sans-serif" font-size="13" lengthAdjust="spacing" textLength="73.216" x="1553" y="228.2739">&#1056;&#1077;&#1079;&#1091;&#1083;&#1100;&#1090;&#1072;&#1090;&#1099;</text><text fill="#000000" font-family="sans-serif" font-size="13" lengthAdjust="spacing" textLength="56.8231" x="1561.1965" y="245.9799">&#1087;&#1086; &#1087;&#1086;&#1095;&#1090;&#1077;</text></g><!--link email to nurse--><g class="link" data-entity-1="email" data-entity-2="nurse" data-source-line="77" data-uid="lnk41" id="link_email_nurse"><path d="M1721.38,203.4569 C1670.39,204.5969 1590.88,206.6069 1522,209.3769 C1232.67,220.9969 801.68,218.1269 716,271.3769 C694.43,284.7869 681.1209,302.9261 670.2609,323.4061" fill="none" id="email-to-nurse" style="stroke:#181818;stroke-width:1;"/><polygon fill="#181818" points="667.45,328.7069,675.2002,322.6296,669.7924,324.2896,668.1324,318.8817,667.45,328.7069" style="stroke:#181818;stroke-width:1;"/><text fill="#000000" font-family="sans-serif" font-size="13" lengthAdjust="spacing" textLength="70.785" x="1201.9" y="193.2739">&#1055;&#1086;&#1083;&#1091;&#1095;&#1077;&#1085;&#1080;&#1077;</text><text fill="#000000" font-family="sans-serif" font-size="13" lengthAdjust="spacing" textLength="78.5851" x="1198" y="210.9799">&#1088;&#1077;&#1079;&#1091;&#1083;&#1100;&#1090;&#1072;&#1090;&#1086;&#1074;</text></g><!--link nurse to medrecord_save--><g class="link" data-entity-1="nurse" data-entity-2="medrecord_save" data-source-line="78" data-uid="lnk42" id="link_nurse_medrecord_save"><path d="M650.83,328.5269 C653.57,280.7469 666,202.0569 716,161.3769 C837.78,62.3069 1026.5087,72.0217 1139.9287,89.3317" fill="none" id="nurse-to-medrecord_save" style="stroke:#181818;stroke-width:1;"/><polygon fill="#181818" points="1145.86,90.2369,1137.5665,84.9249,1140.9172,89.4826,1136.3595,92.8333,1145.86,90.2369" style="stroke:#181818;stroke-width:1;"/><text fill="#000000" font-family="sans-serif" font-size="13" lengthAdjust="spacing" textLength="143.5721" x="747" y="62.2739">&#1042;&#1085;&#1077;&#1089;&#1077;&#1085;&#1080;&#1077; &#1088;&#1077;&#1079;&#1091;&#1083;&#1100;&#1090;&#1072;&#1090;&#1086;&#1074;</text><text fill="#000000" font-family="sans-serif" font-size="13" lengthAdjust="spacing" textLength="63.6611" x="786.9555" y="79.9799">(&#1074;&#1088;&#1091;&#1095;&#1085;&#1091;&#1102;)</text></g><!--link medrecord_save to medrecord_db--><g class="link" data-entity-1="medrecord_save" data-entity-2="medrecord_db" data-source-line="79" data-uid="lnk43" id="link_medrecord_save_medrecord_db"><path d="M1328.04,106.3369 C1450.19,105.1069 1674.78,108.3169 1863,141.3769 C1933.05,153.6769 2005.1116,176.8631 2057.1616,195.5131" fill="none" id="medrecord_save-to-medrecord_db" style="stroke:#181818;stroke-width:1;"/><polygon fill="#181818" points="2062.81,197.5369,2055.6867,190.7356,2058.103,195.8504,2052.9882,198.2667,2062.81,197.5369" style="stroke:#181818;stroke-width:1;"/><text fill="#000000" font-family="sans-serif" font-size="13" lengthAdjust="spacing" textLength="120.6921" x="1529.5" y="105.2739">INSERT &#1088;&#1077;&#1079;&#1091;&#1083;&#1100;&#1090;&#1072;&#1090;&#1099;</text></g><!--SRC=[hLTTJnj757sVNp5r7nBKkeegzQMYI62C5BKqb53r1GcDxOcnCBlMxheXYYh5ffHAhaeL9IsA6XFwBUN5K2mimFPVcFqB_IKzCxFhdR6NX9ROi6XdxZttpfrppmmtg7WYUg8Z_WuVuNc1RuUAeHY4JJ4GP_Bb1EDzqGzRuSw7L1pAzt1NJfnZuWYMS9JM-AkCgBBlOBedJW5oJ6-ktCdEvQT8bTyBQE1Ihr9U3sYful5YK74T4bI2AgVp2_FNn2TlbVYzYiDfpNEBtFUf3C2SSfKJuczKd1hps6OoI1yIYi-oMtTAETTpk4VVlwM6vbXne-pfyQhhqRTpkOM5N4xFkLw9UtfyhWf3ybKg-lGqtmguvx3gMfJEpCn_Y9Y_9RzNYLXY0IimFrvEIkxv3nOMu3FfakGuoksoH13o1it-_m-ynQ_YJ_43TlWNyLpiYsTYdygV9nXxZkzByVIQ8LWnGCOPu9s0npsmf1SsmcP2e5K7e-0D5O_Lu6w6CfyMFSxWE7B_MNJ5ITWGtTXPMJbrp-SZcmDuVmEmBZZPLFCr5bIu4n0osezCRdcHpi-jEZUNN3yeU_pkPvzCHH4trqe5mtAHb-WoBsAZqnqsUSbJqxPRpdLynBmaY9wqFP0uwe1ge7zGZSaMwubUXbgy05IL5TPghXUmgW6LtsILAkB2gIjEmsrn7dudWL6prjGa1fVcRu141-A5Q8i_n5CGwL2yl2PWh1IPBtY1pjPgSZqDYCff97lOOQhKPgZqyHWLwofUxUaYt-S5LgkjAGhn14tk_EpIxGWjt57EVUtw6aJ93PzzoTDIay8iEItEhfAKpvbNN4zmPkl1EbtotAq7oehXLKhJrWCZxuXGYynXPQWJrc1ngRZE8JyfoqnEYIiihyo31CEWVWHrfgIz_nurGSVxmC8mMKtJIIs1ZzJGDZQt6pwoA6f8T4JtWkVUzxcNkbPvE5u0ewaFo075Ca_3FRmZKBBCUgraaM9ofSUI4r9f8bvCjf8ytyQNhjZn9Xgf3ILkQnrEHFZtQo97QWgC6Rixg3hThTQ20gLIXTYE4YfkYmXblAN8Q3usBXLWUllJk_dbbLH2AfyarKY-9VmB5Bw1LklAQuZUv4iJZTqaX3eX9C21lZfX9rimxaYcf0CW1-ra54jtRGppgcOdjeV4I7fQ0lmKUGt21Z5cL8NCXbR1f1tGqHcQrVlYaDXMqzciSQX89zZGEnzFOEiM7ylWiaN4rWeztZVmyNLoCXxLaWODCH13Y4Ygd13RN0OtprZf_opLBzalGoMqESB1OIZP4pQjU_EgymuLlw5SRQhcHpS7qI4cJ0ohpzgeWE4Ubgssf2yVnkKtR173sgBWN-hcqWjtid0Tu3hJCZ8tkAwt_GYMSjkXalAyek6tO-xulJ00R9grNoM7QUJGmWZNpvVcPrVon1YpkjSFM53twKSqO1lSUNVL-UVh7odq8ov9RtpvwewXMtZYIe8E7ChSvFysknZi4cqzqRdduJOQlnihLBec6yMmXLcYFBwIhAi30AUMZDR7y_ifCWPbevk2bdRd8ly2]--></g></svg>